<?xml version="1.0" encoding="utf-8"?>
<!-- Generator: Adobe Illustrator 15.1.0, SVG Export Plug-In . SVG Version: 6.00 Build 0)  -->
<!DOCTYPE svg PUBLIC "-//W3C//DTD SVG 1.1//EN" "http://www.w3.org/Graphics/SVG/1.1/DTD/svg11.dtd">
<svg version="1.1" id="Capa_1" xmlns="http://www.w3.org/2000/svg" xmlns:xlink="http://www.w3.org/1999/xlink" x="0px" y="0px"
	 width="1000px" height="1000px" viewBox="0 0 1000 1000" enable-background="new 0 0 1000 1000" xml:space="preserve">
<path display="none" d="M970.884,651.039L859.23,341.335c29.065-9.769,50.013-37.218,50.013-69.574
	c0-40.544-32.857-73.399-73.399-73.399c-2.078,0-4.128,0.108-6.16,0.278c-105.23,6.16-207.104,9.353-308.739,9.719l-20.938-92.234
	l-20.94,92.223c-101.689-0.42-203.582-3.658-308.794-9.712c-2.016-0.167-4.049-0.273-6.108-0.273
	c-40.544,0-73.399,32.857-73.399,73.399c0,32.356,20.941,59.806,50.01,69.574L29.118,651.039H0
	c0,41.305,74.576,74.786,166.57,74.786c91.992,0,166.555-33.481,166.555-74.786h-29.103L191.8,339.757
	c26.829-10.92,45.758-37.243,45.758-67.996c0-12.69-3.223-24.625-8.89-35.037c70.192,37.367,152.705,58.261,236.718,62.721
	l4.216,369.945c-9.471,6.831-16.547,16.761-19.748,28.311c-9.63,11.415-15.443,26.152-15.443,42.254
	c0,18.066,7.31,34.427,19.133,46.288c-3.564,7.05-5.589,15.014-5.589,23.455c0,1.244,0.059,2.475,0.145,3.696
	c-65.214,9.451-116.9,36.258-136.243,70.48H688.14c-19.341-34.224-71.029-61.029-136.243-70.48c0.086-1.225,0.145-2.452,0.145-3.696
	c0-8.441-2.023-16.405-5.589-23.455c11.821-11.859,19.133-28.22,19.133-46.288c0-16.102-5.813-30.839-15.443-42.254
	c-3.198-11.55-10.275-21.479-19.743-28.309l4.211-369.979c84.063-4.543,166.612-25.523,236.802-62.836
	c-5.718,10.448-8.974,22.437-8.974,35.186c0,30.753,18.927,57.075,45.758,67.995L695.973,651.041h-29.104
	c0,41.306,74.563,74.786,166.557,74.786c91.99,0,166.57-33.48,166.57-74.786h-29.111L970.884,651.039L970.884,651.039z
	 M155.28,651.039H53.119L155.28,367.671V651.039z M280.021,651.039h-102.16V367.671L280.021,651.039z M844.72,367.671
	l102.161,283.368H844.72V367.671z M822.139,367.671v283.368H719.98L822.139,367.671z"/>
<path display="none" fill="#1D1D1B" d="M567.85,351.148c-45.498-27.142-105.472-50.638-128.565-67.652
	c-9.253-6.816-19.025-12.621-28.188-19.608c-6.251-4.77-14.843-11.276-16.384-20.608c-0.315-1.919-0.249-3.896,0.17-5.786
	c0.497-2.229,1.478-4.342,2.791-6.151c3.084-4.238,7.979-6.818,12.655-5.372c6.548,2.026,28.955-9.318,41.359-19.042
	c12.411-9.721,14.198-17.655,8.079-16.642c0,0,0.344-2.398,2.853-3.612c2.512-1.214-4.725-24.711-29.889-25.117
	c-25.158-0.406-45.152,9.318-52.732,18.228c-7.584,8.914-4.481,13.358-9.311,16.605c-4.822,3.249-22.748,21.88-25.503,48.214
	c-2.759,26.333,24.472,60.766,68.244,79.4c43.775,18.634,98.927,36.865,118.229,47.803c19.301,10.938,54.118,36.055,27.23,57.118
	c-26.885,21.067-67.214,49.424-93.066,69.681c-25.85,20.252-51.699,49.828-49.289,76.969c2.413,27.143,33.091,61.576,50.321,76.563
	c17.236,14.988,61.703,57.121,65.838,70.084c4.138,12.964,12.754,24.711-7.24,53.068c-1.379,1.957-2.794,3.881-4.231,5.793
	c-7.941,10.574-16.259,20.838-23.616,31.875c-8.338,12.519-15.556,25.986-19.903,40.592c-2.299,7.728-3.773,15.726-4.251,23.804
	c-0.254,4.268-0.239,8.555,0.049,12.821c0.55,8.109,2.643,16.74,6.384,23.896c2.279,4.36,4.717,8.836,4.972,8.545
	c0.582-0.656-5.253-18.621-6.279-26.605c-1.707-13.291,1.764-38.481,19.84-63.194c18.078-24.711,50.132-50.23,57.029-68.867
	c6.892-18.637,16.194-37.674-17.582-76.16c-33.777-38.484-90.307-85.883-89.274-112.621c1.037-26.734,26.201-45.772,71.696-76.563
	c18.509-12.523,37.812-23.87,55.891-37.066c18.866-13.777,36.49-31.824,35.35-57.699
	C610.417,378.828,586.566,362.317,567.85,351.148 M422.421,171.089c4.721,0,8.553,1.393,8.553,3.108c0,1.717-3.832,3.11-8.553,3.11
	c-4.723,0-8.555-1.393-8.555-3.11C413.866,172.482,417.698,171.089,422.421,171.089 M431.17,346.756
	c-18.717,11.168-42.566,27.679-43.673,52.693c-1.142,25.875,16.481,43.922,35.349,57.699c18.079,13.196,37.383,24.543,55.892,37.065
	c45.495,30.79,70.659,49.829,71.694,76.563c1.032,26.737-55.496,74.137-89.272,112.621c-33.777,38.485-24.475,57.522-17.582,76.159
	c6.896,18.638,38.951,44.156,57.028,68.867c18.076,24.713,21.548,49.904,19.841,63.195c-1.026,7.984-6.861,25.949-6.279,26.605
	c0.254,0.291,2.693-4.185,4.972-8.546c3.741-7.155,5.834-15.786,6.385-23.896c0.288-4.268,0.304-8.555,0.05-12.822
	c-0.479-8.078-1.952-16.076-4.251-23.803c-4.349-14.605-11.566-28.074-19.904-40.592c-7.357-11.037-15.674-21.301-23.616-31.875
	c-1.438-1.912-2.853-3.836-4.23-5.793c-19.994-28.357-11.378-40.105-7.24-53.068c4.134-12.963,48.601-55.096,65.837-70.084
	c17.23-14.988,47.909-49.422,50.321-76.564c2.409-27.141-23.439-56.717-49.289-76.969c-25.853-20.256-66.183-48.611-93.066-69.68
	c-26.887-21.063,7.931-46.18,27.231-57.118c19.302-10.938,74.452-29.169,118.228-47.803c43.773-18.634,71.004-53.067,68.244-79.4
	c-2.754-26.334-20.681-44.965-25.503-48.214c-4.829-3.247-1.727-7.691-9.311-16.605c-7.58-8.91-27.574-18.634-52.732-18.228
	c-25.164,0.406-32.4,23.902-29.889,25.117c2.51,1.214,2.853,3.612,2.853,3.612c-6.119-1.013-4.332,6.921,8.079,16.642
	c12.404,9.724,34.813,21.068,41.359,19.042c4.678-1.447,9.57,1.133,12.654,5.372c1.313,1.81,2.294,3.922,2.791,6.151
	c0.419,1.891,0.486,3.866,0.17,5.786c-1.539,9.332-10.132,15.838-16.384,20.608c-9.162,6.988-18.934,12.792-28.188,19.608
	C536.642,296.118,476.668,319.614,431.17,346.756 M578.86,171.91c4.721,0,8.553,1.393,8.553,3.107c0,1.717-3.832,3.109-8.553,3.109
	c-4.725,0-8.557-1.393-8.557-3.109C570.305,173.302,574.137,171.91,578.86,171.91"/>
<g display="none">
	
		<ellipse transform="matrix(-0.2401 -0.9707 0.9707 -0.2401 151.9813 1033.6436)" display="inline" fill="#00050B" cx="480.553" cy="457.337" rx="427.112" ry="411.374"/>
	
		<ellipse transform="matrix(-0.2401 -0.9707 0.9707 -0.2401 161.1962 1077.814)" display="inline" fill="#FFFFFF" cx="502.449" cy="475.816" rx="432.029" ry="414.308"/>
</g>
<g display="none">
	<ellipse display="inline" fill="#00050B" cx="542.575" cy="544.253" rx="300.944" ry="299.368"/>
	<ellipse display="inline" fill="#FFFFFF" cx="530.271" cy="527.997" rx="303.091" ry="302.817"/>
</g>
<ellipse display="none" fill="#1D1D1B" cx="500.786" cy="462.115" rx="443.648" ry="428.337"/>
<ellipse display="none" fill="#FFFFFF" cx="499.353" cy="463.172" rx="417.214" ry="409.017"/>
<path fill-rule="evenodd" clip-rule="evenodd" d="M519.712,381.217c-5.114-8.28-5.441-14.725-1.756-21.362
	c1.27,1.19,2.481,2.442,3.776,3.772c15.749,7.801,31.83-5.605,36.915-16.467c1.792-6.488,1.792-6.488,5.15-22.941
	c0.556,0.406,3.253,6.174,5.688,10.025c5.71,5.953,8.473,5.895,9.877-0.352c-0.225-2.137-0.51-4.209-0.793-6.279
	c4.033,4.863,12.633,16.537,14.336,6.592c-0.35-2.85-0.35-2.85-2.397-9.826c3.997,3.871,13.504,13.752,12.55,4.077
	c-0.983-2.003-1.885-3.923-2.842-5.786c4.99,3.838,9.735,7.934,15.453,8.962c3.062-3.265,0.049-6.327-2.512-10.892
	c4.422,3.426,12.07,9.516,17.152,9.354c0.541-0.577,1.082-1.154,1.561-1.665c-0.766-4.441-3.269-7.029-6.279-10.938
	c5.85,3.082,11.894,7.666,16.323,4.135c-0.777-4.102-2.78-5.857-5.663-9.398c3.67,1.514,19.514,8.195,14.225-1.09
	c-1.442-1.354-2.791-2.617-4.15-3.893c3.138,0.895,10.76,3.121,10.865-1.236c-1.287-2.527-4.837-4.174-6.08-6.063
	c2.758,0.781,14.625,3.738,12.479-2.119c-1.269-1.189-2.456-2.305-3.636-3.408c-5.857-3.085-5.857-3.085-6.471-3.789
	c4.197,0.453,15.018,2.304,16.77-1.945c-1.83-3.639-7.653-4.888-10.902-6.012c5.24-0.496,11.014-0.372,14.375-3.956
	c-0.744-4.302-7.278-5.981-10.725-7.049c3.107-1.288,19.08,0.339,16.882-6.646c-4.485-4.207-11.237-4.292-16.329-4.978
	c-33.924,10.745-69.44,23.358-93.631,47.441c-3.335,4.925-5.75,9.871-8.066,15.394c-1.16,5.646-2.238,11.366-3.369,17.16
	c-2.236,7.637-5.072,12.191-10.545,17.518c-5.901,3.238-20.89,12.269-28.617,1.178c-0.048-0.289-0.01-0.496,0.022-0.703
	c7.043-7.338,15.57-13.893,19.556-23.734c1.824-9.23,0.75-19.621,2.396-29.01c5.512-13.343,16.187-19.807,30.389-23.921
	c21.096-4.014,21.096-4.014,32.578-6.591c20.094-6.167,38.125-15.217,60.045-17.742c20.82,0.529,42.661,4.54,64.083,9.847
	c3.465,1.559,3.465,1.559,4.706,2.606c-4.483,2.411-9.66,2.844-14.966,3.759c-11.667,1.079-11.667,1.079-29.71,1.829
	c-0.48,0.513-0.48,0.513-0.439,1.152c0.17,0.159,0.338,0.316,0.594,0.557c11.023,0.96,13.78,0.9,21.442,1.716
	c7.131,1.04,18.231,1.586,24.6,6.839c-0.773,0.479-1.539,0.962-2.225,1.521c-15.268,4.07-33.272,2.578-50.182,1.625
	c-0.181,0.192-0.336,0.525-0.495,0.859c0.4,0.254,0.799,0.508,1.139,0.826c8.147,1.149,42.939,2.88,49.833,11.633
	c-0.496,0.369-1.011,0.737-1.509,1.112c-15.962,2.941-35.612-0.704-53.126-4.744c-0.791,0.338-0.896,0.117-1.248,0.997
	c0.544,0.267,1.114,0.676,1.681,1.09c14.876,4.817,30.997,8.994,45.245,17.545c0.989,0.813,1.978,1.613,2.997,2.568
	c-1.319,1.406-4.676,0.912-6.619,1.126c-18.62-3.032-37.145-8.376-55.859-14.031c-0.24,0.255-0.397,0.595-0.553,0.928
	c0.484,0.33,0.969,0.665,1.453,0.998c17.004,6.454,37.516,12.221,52.572,24.656c-6.045,1.183-14.172-2.352-20.737-4.179
	c-11.903-4.432-23.987-9.515-35.843-14.504c-0.422,0.45-0.422,0.45-0.246,1.102c15.984,8.731,32.775,16.433,46.563,29.361
	c-0.237,0.254-0.392,0.59-0.605,0.994c-16.611-4.166-34.313-16.313-49.443-26.298c-0.437-0.046-0.784-0.011-1.188,0.088
	c-0.044,0.203-0.076,0.413-0.17,0.686c12.296,9.608,26.881,19.319,37.075,31.519c0.576,0.906,1.159,1.81,1.764,2.857
	c-0.3,0.32-0.601,0.64-0.961,1.024c-16.161-5.659-30.341-17.156-44.908-27.57c-0.288-0.026-0.581-0.062-0.778-0.008
	c-0.105,0.269-0.113,0.625-0.182,1.03c3.592,3.128,26.273,21.159,24.686,25.564c-5.281,0.213-14.354-6.73-19.155-9.916
	c-15.33-11.971-15.33-11.971-17.159-13.088c-0.326,0.182-0.563,0.433-0.804,0.69c3.474,4.942,12.166,16.697,9.148,21.448
	c-6.341,0.652-20.187-16.285-24.222-20.797c-2.957,2.638,16.268,20.797,11.059,26.352c-7.812-0.826-19.291-18.09-24.03-22.535
	c-3.222,1.916,13.13,26.871,3.149,27.846c-7.789-5.26-11.228-13.293-17.311-20.201c-0.264,0.115-0.59,0.293-0.828,0.547
	c1.75,6.09,5.124,13.7,1.816,18.412c-7.048-0.118-12.468-18.424-17.178-21.874c-0.237,0.253-0.475,0.507-0.695,0.908
	c1.373,5.491,2.375,11.72-0.273,15.728c-5.4-5.779-7.362-16.398-9.102-23.198c-0.579-0.06-1.155-0.123-1.65-0.108
	c0.965,3.552,6.572,30.809,13.47,23.453c0.53-3.108,0.692-6.322,0.468-9.658c4.625,6.615,7.739,13.628,15.156,16.737
	c4.769-1.179,2.978-9.103,2.084-13.069c4.252,5.305,9.873,14.061,16.688,14.084c2.879-3.068,2.09-7.653,1.301-12.242
	c-3.07-9.608-3.07-9.608-2.807-9.727c3.879,4.354,15.031,18.064,21.371,16.556c3.24-3.454-1.369-11.26-3.903-15.679
	c4.269,3.757,9.505,9.029,14.833,10.302c5.578-0.183,2.761-6.678,1.162-10.575c-1.343-2.459-2.689-4.922-4.037-7.393
	c16.826,12.418,34.275,23.49,50.729,36.633c13.116,12.3,30.325,27.359,38.67,42.877c-16.063-3.398-30.994-12.23-45.508-22.357
	c-12.68-11.41-22.779-23.535-38.229-30.803c-0.151,0.339-0.366,0.734-0.498,1.213c2.587,1.473,5.188,2.945,7.813,4.563
	c15.557,11.223,29.472,25.712,37.279,42.658c-0.118,0.125-0.24,0.255-0.357,0.381c-15.807-4.004-32.479-13.867-43.746-27.799
	c-4.904-4.599-9.051-7.648-15.131-9.979c-1.68,1.791,2.154,2.622,3.674,3.203c11.606,7.641,17.639,16.304,22.344,28.407
	c-4.797,5.114-20.318-8.351-24.464-12.239c-1.169-1.464-2.407-2.865-3.558-4.181c-3.195-5.407-3.195-5.407-3.788-5.962
	c-0.724-0.078-0.724-0.078-1.325,0.563c0.816,8.463,0.68,16.748-4.538,22.312c-4.341-0.462-14.779-12.894-17.749-16.521
	c-4.602-7.806-7.79-15.602-11.08-23.614c-0.508-0.477-1.074-0.89-1.645-1.305c-0.178,0.19-0.358,0.382-0.539,0.575
	c2.092,5.57,4.043,11.118,6.742,16.543c1.7,5.324,4.547,13.643,3.278,18.22c-9.31-8.73-16.704-17.47-24.054-27.606
	c-4.486-7.086-4.486-7.086-5.303-7.734c-0.294-0.031-0.578-0.066-0.783-0.015c-0.035,0.204-0.127,0.479-0.228,0.747
	c3.813,8.145,7.021,17.278,3.097,24.181c-8.758-8.813-12.889-17.974-17.819-28.485c-0.339-0.317-0.735-0.574-1.132-0.825
	c-0.238,0.253-0.479,0.509-0.779,0.831c1.314,4.358,5.373,19.705,0.832,22.178c-5.127-5.045-7.465-8.322-10.38-14.539
	c-0.428-0.4-0.899-0.729-1.39-1.066c-0.178,0.189-0.36,0.385-0.602,0.642C539.73,380.391,532.334,390.649,519.712,381.217
	L519.712,381.217z M571.574,334.394c2.658,2.251,2.658,2.251,3.488,2.556c4.374-2.631,1.191-10.428-0.145-15.285
	c-2.68-1.55-5.505-3.118-7.902-5.131c-1.379,2.316-1.379,2.316-2.144,4.486C566.646,325.573,568.774,330.089,571.574,334.394
	L571.574,334.394z M628.567,381.471c7.065,6.029,13.803,12.583,20.574,18.934c0.271-0.462,0.546-0.928,0.815-1.392
	c-6.766-6.344-13.451-12.613-20.191-18.819C629.404,380.579,628.986,381.024,628.567,381.471L628.567,381.471z M584.456,332.532
	c1.751,1.521,3.353,3.021,5.276,3.867c3.641-2.357-2.477-14.83-4.13-18.661c-2.126-1.63-4.313-3.2-6.497-4.769
	c1.219,3.785,1.635,7.065-1.836,8.734C579.66,325.268,582.046,328.826,584.456,332.532L584.456,332.532z M567.523,314.976
	c1.36,0.91,2.73,1.831,4.116,2.894c10.253,5.521,5.634-5.662,2.164-10.953C571.301,309.254,569.443,312.079,567.523,314.976
	L567.523,314.976z M659.581,388.081c6.81,5.785,6.81,5.785,13.062,10.323c0.271-0.462,0.546-0.929,0.768-1.329
	c-11.639-8.623-20.753-18.738-30.023-29.715c-0.382,0.246-0.766,0.483-1.211,0.786C647.737,374.926,653.572,381.6,659.581,388.081
	L659.581,388.081z M593.605,325.485c2.344,2.077,4.642,4.713,7.557,5.17c-0.243-4.326-4.154-10.994-7.798-14.41
	c-0.796,2.375-2.571,2.396-4.842,2.791C590.228,321.116,591.871,323.257,593.605,325.485L593.605,325.485z M577.012,308.242
	c2.432,2.159,13.493,13.251,14.404,6.175c-1.98-5.344-4.802-10.64-9.133-15.18c-2.498,1.988-4.975,4.113-7.447,6.248
	C575.563,306.403,576.287,307.327,577.012,308.242L577.012,308.242z M596.629,316.661c4.212,3.824,12.418,12.364,17.914,12.953
	c0.148-0.337,0.393-0.596,0.631-0.852c-2.619-6.187-6.241-11.146-11.483-16.062c-4.919-0.53-9.632-3.979-14.067-7.051
	C591.629,309.45,593.514,313.37,596.629,316.661L596.629,316.661z M584.229,298.18c4.912,4.25,16.131,16.203,21.109,10.896
	c-1.621-6.927-5.886-11.524-11.461-17.121C590.674,294.006,587.48,296.056,584.229,298.18L584.229,298.18z M652.445,357.7
	c18.812,15.723,38.49,30.689,57.238,46.471c0.42-0.448,0.842-0.896,1.202-1.281c-10.634-9.006-10.634-9.006-57.241-46.467
	C653.282,356.809,652.863,357.254,652.445,357.7L652.445,357.7z M606.36,312.563c6.144,5.152,15.038,13.98,22.558,15.623
	c0.361-0.386,0.66-0.703,0.958-1.021c-2.36-6.301-8.724-11.551-13.829-16.461c0.297-0.316,0.601-0.639,0.9-0.959
	c4.325,2.859,19.268,14.223,23.121,10.625c-4.089-6.836-10.004-10.707-16.455-15.189c-0.189-0.301-0.385-0.603-0.573-0.9
	c0.245-0.609,0.245-0.609,0.923-0.822c3.935,2.255,22.667,13.813,26.028,10.229c-2.004-5.487-11.485-7.766-15.458-11.491
	c-0.123-0.718-0.123-0.718,0.236-1.101c4.932,1.858,16.42,7.583,20.65,4.94c-5.325-6.197-13.813-7.662-19.91-12.184
	c0.156-0.33,0.311-0.657,0.496-0.854c7.027,2.502,20.301,8.701,26.193,5.807c-6.354-6.796-16.729-8.953-24.422-10.762
	c-0.361-0.454-0.705-0.775-1.039-1.09c0.094-0.272,0.189-0.545,0.222-0.754c4.454,0.687,8.837,1.434,13.312,2.262
	c4.75,0.363,14.379,2.306,17.933-0.127c-9.022-5.82-21.659-6.249-30.907-7.229c-0.424-0.398-0.764-0.716-1.164-0.969
	c0.158-0.339,0.395-0.591,0.635-0.848c8.101,0.861,29.611,4.205,35.011-1.553c-8.812-5.857-19.261-6.761-28.603-8.668
	c-9.563,3.414-9.563,3.414-16.416,6.482c3.584,2.287,3.584,2.287,7.406,5.502c6.18,9.523-5.855,6.414-11.806,4.44
	c1.433,1.704,2.884,3.546,4.335,5.388c4.759,10.352-7.11,5.719-12.695,3.36c7.563,8.895,7.104,15.319-4.661,9.21
	c-5.858-3.929-5.858-3.929-6.521-4.07C606.055,304.577,608.504,307.72,606.36,312.563L606.36,312.563z M595.586,291.155
	c3.541,2.846,18.697,15.85,21.873,12.463c-0.201-5.725-10.35-13.555-14.814-16.776C600.258,288.206,597.951,289.645,595.586,291.155
	L595.586,291.155z M672.365,357.997c12.092,8.809,23.147,18.219,34.146,28.533c4.415,4.623,8.855,9.385,13.293,14.145
	c18.991,11.808,35.039,13.51,53.398,10.045c0.093-0.271,0.275-0.465,0.453-0.655c-16.074-5.58-31.922-14.791-46.775-24.396
	c-11.343-8.59-20.579-17.73-30.425-27.93c-4.025,2.602-13.889-4.004-18.405-6.313c2.216,2.552,4.45,5.256,6.696,7.953
	c18.886,19.877,35.905,36.325,61.151,44.005c0.008,0.491,0.104,1.068,0.201,1.639c-30.257-7.584-51.687-32.73-72.856-56.432
	c-2.42-1.665-4.752-3.251-7.146-4.772c1.83,1.951,3.654,3.912,5.422,5.922C674.607,354.084,676.226,356.089,672.365,357.997
	L672.365,357.997z M604.648,286.068c2.87,1.851,20.902,14.679,21.293,7.47c-2.472-5.327-7.704-8.901-12.412-12.361
	C610.611,282.762,607.629,284.417,604.648,286.068L604.648,286.068z M707.029,366.817c13.295,12.109,26.629,21.968,42.067,30.435
	c7.344,1.835,14.519,3.518,21.674,3.854c13.63,0.041,23.719-2.399,34.477-7.943c-0.108-0.22-0.278-0.378-0.447-0.537
	c-28.46-9.502-56.238-19.559-83.542-34.708c-4.519-3.149-8.949-6.223-13.436-9.234c-4.195-0.446-8.498-2.312-12.709-4.099
	c0.282,0.383,0.565,0.768,0.866,1.289c10.069,9.443,19.834,18.361,30.814,26.492c17.117,11.25,31.101,16.182,49.112,17.33
	c0.337,0.314,0.679,0.635,1.098,1.028c-0.955,1.864-9.55,0.179-12.012-0.083c-28.952-5.756-52.096-25.166-74.203-47.713
	c-4.818-2.829-9.697-5.6-14.488-8.294c4.475,3.713,4.475,3.713,16.574,15.059C697.424,355.525,702.098,361.225,707.029,366.817
	L707.029,366.817z M615.756,280.498c1.48,0.794,18.787,8.97,18.467,3.374c-2.281-3.342-6.421-5.538-9.697-7.289
	C623.005,276.837,623.005,276.837,615.756,280.498L615.756,280.498z M758.216,401.6c0.236,0.093,0.4,0.247,0.659,0.488
	C758.616,401.847,758.452,401.693,758.216,401.6L758.216,401.6z M684.648,327.43c31.173,19.499,73.185,45.072,105.925,38.989
	c0.591,0.554,0.591,0.554,0.966,1.514c-1.138,1.213-8.27,1.02-10.362,1.218c-24.769-1.229-48.324-11.896-72.426-24.523
	c0.528,0.972,1.107,1.883,0.904,2.77c15.154,13.011,35.529,21.301,52.925,28.355c18.511,5.697,34.34,3.236,49.689-1.61
	c8.042-3.997,8.042-3.997,8.558-4.714c-33.878-5.928-70.238-11.415-102.109-33.723c-2.336,1.297-7.46-0.021-10.458-0.555
	C702.683,333.645,685.493,327.385,684.648,327.43L684.648,327.43z M691.187,317.577c8.024,3.322,15.82,7.381,23.521,11.72
	c2.765,2.474,5.532,4.95,8.385,7.505c22.576,14.076,48.671,23.399,72.271,24.854c13.383-1.392,28.856-5.511,37.377-14.597
	c-34.881-3.5-70.193-5.36-105.123-24.405c-5.58,1.37-12.5-0.064-18.769-1.015c0.086,0.08,0.193,0.301,0.298,0.523
	c20.391,12.508,40.315,21.452,62.014,26.295c9.505,1.223,17.328,1.706,26.091,0.665c0.906,0.731,0.906,0.731,1.235,1.396
	c-3.176,1.354-9.378,1.186-13.218,1.548c-21.223-1.628-41.359-8.97-62.069-19.614c-8.9-5.104-8.9-5.104-19.905-12.18
	C691.656,317.411,691.656,317.411,691.187,317.577L691.187,317.577z M646.728,267.827c10.47,1.884,24.003,3.396,31.847-1.746
	C667.881,257.977,654.963,264.973,646.728,267.827L646.728,267.827z M694.747,303.603c10.527,3.87,24.349,7.448,33.313,15.855
	c0.539,1.466,1.711,2.085,2.956,3.134c15.569,7.987,30.662,12.404,46.623,16.07c10.887,1.79,12.284,1.661,13.606,1.94
	c8.613-0.698,8.613-0.698,20.121-2.29c9.39-2.727,17.813-5.771,25.471-11.215c1.232-1.489,2.468-2.978,3.787-4.384
	c-34.55-1.989-72.069-1.829-107.64-17.991c-6.423,1.068-12.921,1.221-19.85,0.98c0.257,0.24,0.511,0.478,0.705,0.78
	c33.731,17.445,70.508,28.25,101.489,19.8c0.305,0.523,0.608,1.053,0.934,1.719c-31.771,9.633-74.198-3.463-108.561-22.947
	C697.099,303.643,697.099,303.643,694.747,303.603L694.747,303.603z M707.099,291.625c13.62,2.438,27.271,7.543,40.938,11.463
	c19.689,3.92,36.469,3.665,54.271,0.283c6.004-1.823,6.004-1.823,18.825-6.508c0.218,0.442,1.066,1.238,0.585,1.75
	c-22.126,9.182-43.017,11.111-70.164,7.167c-5.913-1.331-5.913-1.331-16.874-4.401c-0.107,0.622-0.126,1.326-0.21,2.09
	c4.877,1.926,9.687,3.916,14.5,5.906c12.771,3.682,25.608,6.1,38.239,7.729c7.979-1.053,7.979-1.053,18.603-3.229
	c13.707-4.943,23.185-11.324,32.661-21.43c3.509-4.762,3.509-4.762,3.929-6.054c-34.42,7.874-70.163,8.856-109.043,2.325
	C725.389,291.106,715.901,291.222,707.099,291.625L707.099,291.625z M714.084,275.696c36.603-0.537,67.351-17.387,79.337-48.821
	c0.798-0.335,1.226-0.294,1.98,0.774c-9.112,31.25-43.636,48.399-77.164,49.893c0.187,0.301,13.908,4.161,15.937,4.369
	c18.586-3.367,34.799-8.958,51.13-16.362c9.657-10.298,16.261-23.105,20.207-37.313c1.325-8.373,1.683-17.058,1.429-25.949
	c-0.59-3.443-3.079-18.76-4.444-19.678c-3.06,9.033-7.096,17.744-11.129,26.105c-12.879,23.749-28.716,50.973-56.096,60.162
	c-0.421,0.449-0.421,0.449-0.642,2.043C729.838,274.841,720.552,274.907,714.084,275.696L714.084,275.696z M736.222,287.199
	c16.403,3.358,33.149,4.161,48.876,4.003c24.203-9.525,40.952-26.036,43.56-54.247c-6.747,6.175-13.918,11.955-21.003,17.818
	c-5.144,3.107-10.263,6.363-15.384,9.618c-17.245,9.068-36.134,15.643-56.44,19.314c0.256,0.24,0.511,0.478,0.702,0.781
	c5.361,0.22,10.719,0.435,16.086,0.659c20.285-1.292,36.518-6.386,51.05-17.645c5.893-5.775,5.893-5.775,10.471-11.337
	c0.51,0.477,1.015,0.951,1.521,1.425c-0.942,1.519-0.942,1.519-9.641,10.794c-19.336,14.686-41.114,20.949-69.308,17.953
	C736.531,286.528,736.373,286.861,736.222,287.199L736.222,287.199z M712.478,260.963c0.71,0.428,0.71,0.428,9.305,2.119
	c7.207-2.261,14.186-4.613,20.781-7.919c14.777-10.671,21.639-23.586,25.124-42.561c0.289-3.697,0.659-7.319,1.03-10.939
	c0.154-0.329,0.312-0.668,0.55-0.922c0.378,0.109,0.836,0.301,1.233,0.553c-0.356,4.957-0.769,9.979-1.184,14.998
	c-4.585,19.983-12.895,33.596-30.399,43.265c-6.956,2.848-6.956,2.848-12.846,4.545c3.901,1.61,6.469,2.939,10.085,2.481
	c20.86-7.845,33.774-26.869,45.309-44.427c0.314-10.164,0.299-20.157-1.957-30.811c-1.792-5.884-1.792-5.884-6.061-17.099
	c-4.091-7.683-9.098-18.631-15.948-25.055c1.693,11.083,1.693,11.083,2.842,21.9c1.262,21.38,0.062,38.769-6.048,57.324
	C745.414,245.688,733.511,257.851,712.478,260.963L712.478,260.963z M796.813,318.05c0.059-0.062,0.201-0.048,0.352-0.029
	C797.014,318.002,796.871,317.989,796.813,318.05L796.813,318.05z M791.281,291.229L791.281,291.229L791.281,291.229z
	 M783.811,217.622"/>
<path fill-rule="evenodd" clip-rule="evenodd" d="M481.271,381.476c-12.623,9.432-20.019-0.826-21.424-10.805
	c-0.242-0.257-0.424-0.452-0.602-0.642c-0.49,0.338-0.962,0.666-1.39,1.066c-2.915,6.217-5.252,9.495-10.38,14.54
	c-4.541-2.473-0.482-17.82,0.833-22.178c-0.302-0.322-0.542-0.578-0.78-0.831c-0.396,0.251-0.793,0.508-1.132,0.826
	c-4.931,10.511-9.062,19.672-17.82,28.485c-3.923-6.902-0.715-16.036,3.097-24.181c-0.1-0.268-0.192-0.542-0.227-0.747
	c-0.205-0.051-0.49-0.017-0.784,0.015c-0.816,0.648-0.816,0.648-5.302,7.734c-7.351,10.137-14.745,18.876-24.054,27.606
	c-1.268-4.577,1.578-12.896,3.278-18.22c2.7-5.425,4.651-10.973,6.743-16.542c-0.181-0.193-0.362-0.386-0.54-0.576
	c-0.57,0.415-1.136,0.828-1.644,1.305c-3.291,8.012-6.479,15.809-11.081,23.615c-2.969,3.627-13.408,16.058-17.749,16.52
	c-5.217-5.563-5.354-13.849-4.539-22.312c-0.601-0.641-0.601-0.641-1.325-0.562c-0.593,0.555-0.593,0.555-3.788,5.962
	c-1.15,1.315-2.389,2.717-3.558,4.181c-4.146,3.888-19.667,17.353-24.463,12.239c4.705-12.104,10.737-20.767,22.343-28.407
	c1.521-0.581,5.354-1.413,3.674-3.203c-6.081,2.33-10.227,5.38-15.131,9.979c-11.267,13.932-27.938,23.794-43.745,27.798
	c-0.118-0.126-0.24-0.256-0.357-0.381c7.807-16.946,21.723-31.435,37.279-42.658c2.625-1.617,5.225-3.089,7.812-4.562
	c-0.131-0.479-0.346-0.875-0.497-1.213c-15.45,7.268-25.55,19.393-38.229,30.803c-14.514,10.127-29.445,18.959-45.508,22.357
	c8.345-15.517,25.554-30.577,38.67-42.877c16.453-13.142,33.903-24.215,50.729-36.632c-1.347,2.47-2.694,4.933-4.038,7.392
	c-1.598,3.897-4.415,10.393,1.162,10.575c5.329-1.272,10.565-6.545,14.833-10.302c-2.534,4.419-7.143,12.225-3.904,15.679
	c6.34,1.508,17.493-12.202,21.372-16.556c0.263,0.118,0.263,0.118-2.808,9.726c-0.789,4.589-1.578,9.174,1.301,12.243
	c6.814-0.023,12.436-8.78,16.688-14.084c-0.894,3.967-2.685,11.891,2.084,13.069c7.417-3.109,10.531-10.122,15.156-16.737
	c-0.225,3.336-0.063,6.55,0.468,9.659c6.898,7.355,12.505-19.902,13.47-23.453c-0.495-0.015-1.071,0.049-1.65,0.108
	c-1.74,6.799-3.702,17.418-9.102,23.198c-2.648-4.008-1.646-10.236-0.273-15.728c-0.22-0.401-0.458-0.655-0.696-0.908
	c-4.709,3.45-10.129,21.756-17.178,21.874c-3.307-4.712,0.067-12.323,1.817-18.412c-0.239-0.254-0.564-0.433-0.829-0.548
	c-6.083,6.908-9.521,14.941-17.311,20.202c-9.98-0.975,6.371-25.93,3.15-27.847c-4.74,4.446-16.219,21.709-24.03,22.536
	c-5.209-5.556,14.016-23.714,11.059-26.353c-4.036,4.512-17.881,21.45-24.222,20.797c-3.018-4.75,5.675-16.505,9.148-21.448
	c-0.241-0.258-0.477-0.509-0.803-0.69c-1.83,1.117-1.83,1.117-17.16,13.088c-4.801,3.185-13.875,10.129-19.156,9.915
	c-1.587-4.405,21.095-22.436,24.686-25.564c-0.067-0.405-0.076-0.762-0.181-1.03c-0.197-0.054-0.49-0.019-0.779,0.008
	c-14.567,10.414-28.748,21.911-44.908,27.57c-0.361-0.385-0.661-0.705-0.961-1.024c0.604-1.048,1.188-1.952,1.764-2.857
	c10.194-12.199,24.779-21.91,37.076-31.519c-0.095-0.272-0.126-0.482-0.17-0.686c-0.404-0.098-0.751-0.134-1.188-0.088
	c-15.13,9.985-32.833,22.132-49.443,26.298c-0.214-0.405-0.368-0.74-0.605-0.994c13.787-12.929,30.579-20.63,46.563-29.362
	c0.176-0.651,0.176-0.651-0.246-1.101c-11.856,4.989-23.94,10.072-35.844,14.504c-6.565,1.827-14.692,5.361-20.737,4.178
	c15.056-12.436,35.568-18.202,52.572-24.656c0.485-0.333,0.97-0.668,1.454-0.998c-0.155-0.333-0.313-0.672-0.552-0.928
	c-18.715,5.656-37.24,10.999-55.86,14.031c-1.943-0.213-5.3,0.281-6.619-1.125c1.02-0.956,2.007-1.756,2.997-2.569
	c14.248-8.551,30.369-12.727,45.245-17.545c0.566-0.414,1.137-0.823,1.681-1.09c-0.352-0.879-0.457-0.659-1.248-0.997
	c-17.514,4.04-37.164,7.686-53.126,4.744c-0.499-0.375-1.013-0.743-1.509-1.112c6.894-8.753,41.686-10.484,49.834-11.634
	c0.339-0.317,0.737-0.572,1.139-0.826c-0.16-0.334-0.314-0.667-0.496-0.859c-16.909,0.954-34.915,2.446-50.182-1.625
	c-0.686-0.559-1.451-1.042-2.225-1.521c6.368-5.253,17.469-5.8,24.6-6.839c7.662-0.815,10.419-0.755,21.442-1.716
	c0.257-0.241,0.425-0.398,0.594-0.557c0.042-0.64,0.042-0.64-0.439-1.152c-18.043-0.75-18.043-0.75-29.71-1.829
	c-5.306-0.915-10.482-1.348-14.966-3.759c1.241-1.047,1.241-1.047,4.706-2.606c21.422-5.307,43.264-9.318,64.084-9.847
	c21.919,2.525,39.951,11.575,60.044,17.742c11.483,2.577,11.483,2.577,32.578,6.591c14.203,4.115,24.877,10.578,30.389,23.92
	c1.646,9.389,0.573,19.779,2.396,29.011c3.985,9.841,12.513,16.396,19.556,23.734c0.032,0.207,0.07,0.414,0.022,0.703
	c-7.727,11.091-22.715,2.061-28.617-1.178c-5.473-5.326-8.308-9.88-10.545-17.517c-1.13-5.794-2.208-11.515-3.369-17.16
	c-2.316-5.523-4.731-10.469-8.066-15.394c-24.19-24.083-59.706-36.696-93.631-47.441c-5.091,0.687-11.843,0.771-16.329,4.978
	c-2.198,6.984,13.774,5.357,16.881,6.646c-3.446,1.068-9.979,2.748-10.724,7.049c3.361,3.584,9.134,3.46,14.375,3.956
	c-3.25,1.125-9.072,2.373-10.902,6.012c1.751,4.249,12.572,2.398,16.77,1.945c-0.613,0.704-0.613,0.704-6.472,3.789
	c-1.179,1.104-2.367,2.219-3.635,3.409c-2.145,5.858,9.722,2.9,12.479,2.119c-1.243,1.889-4.793,3.535-6.08,6.063
	c0.105,4.357,7.727,2.13,10.865,1.236c-1.359,1.275-2.708,2.54-4.15,3.892c-5.289,9.285,10.555,2.604,14.225,1.09
	c-2.883,3.542-4.886,5.298-5.663,9.399c4.43,3.531,10.473-1.052,16.323-4.135c-3.011,3.908-5.514,6.497-6.28,10.938
	c0.479,0.511,1.02,1.088,1.561,1.665c5.083,0.162,12.73-5.929,17.153-9.354c-2.561,4.565-5.574,7.627-2.512,10.892
	c5.717-1.029,10.462-5.124,15.452-8.962c-0.957,1.864-1.858,3.783-2.841,5.786c-0.955,9.675,8.552-0.207,12.549-4.077
	c-2.048,6.976-2.048,6.976-2.398,9.825c1.704,9.946,10.304-1.728,14.336-6.591c-0.283,2.07-0.569,4.143-0.793,6.279
	c1.404,6.246,4.167,6.304,9.877,0.351c2.435-3.851,5.132-9.619,5.688-10.025c3.358,16.454,3.358,16.454,5.15,22.942
	c5.084,10.861,21.166,24.267,36.915,16.466c1.294-1.329,2.507-2.582,3.776-3.772C486.712,366.752,486.385,373.196,481.271,381.476
	L481.271,381.476z M429.408,334.653c2.8-4.305,4.927-8.821,6.702-13.375c-0.765-2.169-0.765-2.169-2.143-4.486
	c-2.398,2.013-5.224,3.581-7.902,5.131c-1.336,4.858-4.519,12.655-0.145,15.285C426.75,336.904,426.75,336.904,429.408,334.653
	L429.408,334.653z M372.415,381.73c-0.419-0.447-0.837-0.893-1.198-1.278c-6.741,6.207-13.426,12.476-20.191,18.82
	c0.27,0.464,0.543,0.93,0.815,1.392C358.612,394.313,365.35,387.76,372.415,381.73L372.415,381.73z M416.526,332.791
	c2.41-3.706,4.796-7.263,7.186-10.828c-3.471-1.669-3.054-4.949-1.835-8.735c-2.184,1.569-4.371,3.14-6.498,4.769
	c-1.653,3.831-7.771,16.303-4.13,18.661C413.174,335.813,414.775,334.312,416.526,332.791L416.526,332.791z M433.459,315.235
	c-1.92-2.898-3.777-5.721-6.281-8.06c-3.47,5.292-8.088,16.476,2.164,10.954C430.729,317.066,432.099,316.146,433.459,315.235
	L433.459,315.235z M341.401,388.34c6.009-6.48,11.844-13.154,17.405-19.935c-0.445-0.303-0.829-0.541-1.21-0.786
	c-9.271,10.976-18.386,21.091-30.023,29.715c0.221,0.4,0.496,0.867,0.768,1.329C334.591,394.125,334.591,394.125,341.401,388.34
	L341.401,388.34z M407.377,325.745c1.734-2.228,3.377-4.37,5.083-6.45c-2.27-0.395-4.045-0.416-4.842-2.792
	c-3.643,3.417-7.555,10.084-7.798,14.41C402.735,330.457,405.033,327.821,407.377,325.745L407.377,325.745z M423.971,308.501
	c0.724-0.916,1.449-1.839,2.175-2.757c-2.473-2.135-4.948-4.259-7.447-6.249c-4.331,4.541-7.152,9.836-9.132,15.18
	C410.478,321.752,421.539,310.66,423.971,308.501L423.971,308.501z M404.353,316.919c3.115-3.29,5.001-7.21,7.006-11.01
	c-4.436,3.071-9.148,6.521-14.067,7.051c-5.242,4.916-8.864,9.875-11.484,16.062c0.239,0.255,0.482,0.514,0.631,0.851
	C391.935,329.284,400.142,320.744,404.353,316.919L404.353,316.919z M416.754,298.439c-3.252-2.124-6.446-4.173-9.649-6.225
	c-5.575,5.596-9.84,10.194-11.46,17.121C400.623,314.643,411.841,302.689,416.754,298.439L416.754,298.439z M348.537,357.959
	c-0.418-0.446-0.836-0.892-1.198-1.278c-46.608,37.461-46.608,37.461-57.242,46.467c0.36,0.385,0.782,0.833,1.202,1.281
	C310.047,388.648,329.726,373.682,348.537,357.959L348.537,357.959z M394.622,312.822c-2.144-4.843,0.306-7.986,3.542-13.183
	c-0.661,0.141-0.661,0.141-6.52,4.07c-11.764,6.108-12.225-0.316-4.661-9.21c-5.585,2.359-17.455,6.991-12.696-3.361
	c1.451-1.841,2.903-3.683,4.335-5.387c-5.95,1.974-17.985,5.083-11.805-4.44c3.822-3.216,3.822-3.216,7.406-5.502
	c-6.854-3.068-6.854-3.068-16.416-6.482c-9.342,1.907-19.792,2.811-28.603,8.668c5.4,5.758,26.91,2.414,35.01,1.553
	c0.241,0.257,0.477,0.509,0.635,0.848c-0.4,0.253-0.739,0.571-1.164,0.969c-9.248,0.98-21.885,1.409-30.907,7.229
	c3.553,2.433,13.183,0.491,17.933,0.127c4.474-0.827,8.857-1.575,13.311-2.261c0.032,0.209,0.127,0.481,0.222,0.754
	c-0.335,0.314-0.678,0.636-1.04,1.09c-7.693,1.808-18.068,3.965-24.422,10.761c5.893,2.895,19.167-3.305,26.194-5.807
	c0.185,0.196,0.34,0.523,0.496,0.854c-6.098,4.522-14.585,5.986-19.91,12.184c4.23,2.642,15.718-3.082,20.65-4.94
	c0.359,0.383,0.359,0.383,0.235,1.101c-3.972,3.725-13.454,6.003-15.458,11.491c3.361,3.584,22.094-7.975,26.028-10.229
	c0.677,0.213,0.677,0.213,0.923,0.821c-0.188,0.298-0.384,0.6-0.573,0.901c-6.451,4.482-12.367,8.353-16.455,15.189
	c3.854,3.597,18.795-7.766,23.121-10.625c0.3,0.32,0.604,0.644,0.9,0.959c-5.105,4.91-11.468,10.161-13.829,16.46
	c0.298,0.318,0.597,0.636,0.958,1.021C379.584,326.803,388.479,317.974,394.622,312.822L394.622,312.822z M405.396,291.414
	c-2.365-1.509-4.671-2.948-7.058-4.313c-4.465,3.221-14.613,11.051-14.815,16.776C386.7,307.264,401.855,294.259,405.396,291.414
	L405.396,291.414z M328.618,358.256c-3.861-1.907-2.243-3.912,0.847-8.255c1.768-2.01,3.592-3.971,5.421-5.922
	c-2.394,1.522-4.726,3.107-7.146,4.772c-21.17,23.701-42.601,48.848-72.857,56.432c0.098-0.57,0.193-1.147,0.201-1.639
	c25.246-7.68,42.265-24.128,61.152-44.005c2.245-2.698,4.479-5.401,6.696-7.953c-4.516,2.309-14.379,8.914-18.405,6.312
	c-9.846,10.199-19.082,19.341-30.425,27.931c-14.854,9.604-30.701,18.815-46.776,24.395c0.178,0.19,0.36,0.385,0.453,0.655
	c18.359,3.465,34.407,1.763,53.398-10.045c4.438-4.76,8.878-9.521,13.293-14.145C305.469,376.475,316.525,367.064,328.618,358.256
	L328.618,358.256z M396.334,286.327c-2.981-1.651-5.963-3.306-8.881-4.891c-4.708,3.459-9.94,7.034-12.413,12.361
	C375.432,301.006,393.464,288.178,396.334,286.327L396.334,286.327z M293.953,367.076c4.932-5.592,9.605-11.292,14.155-17.124
	c12.099-11.346,12.099-11.346,16.573-15.059c-4.791,2.694-9.669,5.465-14.488,8.294c-22.107,22.547-45.25,41.957-74.203,47.713
	c-2.462,0.262-11.057,1.948-12.012,0.083c0.419-0.393,0.761-0.713,1.098-1.029c18.012-1.148,31.996-6.08,49.112-17.33
	c10.98-8.131,20.746-17.049,30.814-26.492c0.301-0.521,0.584-0.906,0.866-1.289c-4.21,1.787-8.514,3.651-12.708,4.098
	c-4.486,3.012-8.917,6.085-13.436,9.234c-27.304,15.149-55.082,25.207-83.542,34.708c-0.169,0.16-0.339,0.318-0.447,0.538
	c10.757,5.544,20.847,7.985,34.476,7.943c7.155-0.337,14.331-2.02,21.674-3.854C267.324,389.044,280.658,379.186,293.953,367.076
	L293.953,367.076z M385.226,280.757c-7.249-3.661-7.249-3.661-8.769-3.915c-3.277,1.751-7.416,3.947-9.697,7.289
	C366.44,289.727,383.746,281.551,385.226,280.757L385.226,280.757z M242.766,401.859c-0.236,0.093-0.4,0.247-0.659,0.489
	C242.366,402.106,242.53,401.952,242.766,401.859L242.766,401.859z M316.334,327.69c-0.845-0.045-18.035,6.214-23.612,7.72
	c-2.998,0.533-8.123,1.852-10.458,0.555c-31.871,22.307-68.231,27.794-102.11,33.722c0.516,0.717,0.516,0.717,8.558,4.714
	c15.35,4.846,31.178,7.308,49.689,1.611c17.396-7.055,37.771-15.345,52.925-28.355c-0.204-0.887,0.376-1.798,0.904-2.771
	c-24.102,12.627-47.658,23.295-72.426,24.524c-2.093-0.198-9.225-0.005-10.362-1.218c0.375-0.959,0.375-0.959,0.965-1.514
	C243.149,372.761,285.161,347.188,316.334,327.69L316.334,327.69z M309.796,317.836c-0.47-0.167-0.47-0.167-12.108,2.695
	c-11.005,7.076-11.005,7.076-19.905,12.18c-20.71,10.645-40.847,17.986-62.069,19.614c-3.84-0.362-10.042-0.195-13.218-1.548
	c0.33-0.664,0.33-0.664,1.235-1.396c8.763,1.041,16.586,0.558,26.091-0.665c21.698-4.843,41.623-13.787,62.014-26.295
	c0.104-0.222,0.212-0.443,0.298-0.523c-6.268,0.95-13.188,2.385-18.769,1.015c-34.93,19.045-70.242,20.906-105.123,24.405
	c8.52,9.085,23.994,13.205,37.376,14.597c23.601-1.455,49.696-10.778,72.271-24.855c2.853-2.554,5.62-5.031,8.385-7.504
	C293.976,325.217,301.771,321.158,309.796,317.836L309.796,317.836z M354.255,268.086c-8.235-2.854-21.153-9.851-31.846-1.746
	C330.252,271.483,343.786,269.971,354.255,268.086L354.255,268.086z M306.235,303.862c-2.352,0.041-2.352,0.041-12.956,1.453
	c-34.362,19.483-76.79,32.579-108.561,22.947c0.325-0.666,0.629-1.195,0.934-1.719c30.982,8.451,67.758-2.354,101.49-19.799
	c0.194-0.303,0.448-0.54,0.705-0.781c-6.929,0.241-13.427,0.088-19.849-0.98c-35.57,16.163-73.09,16.003-107.64,17.992
	c1.319,1.406,2.554,2.895,3.787,4.383c7.657,5.445,16.081,8.489,25.471,11.216c11.508,1.591,11.508,1.591,20.121,2.29
	c1.322-0.279,2.72-0.15,13.607-1.94c15.96-3.667,31.054-8.083,46.623-16.071c1.245-1.048,2.417-1.667,2.956-3.133
	C281.886,311.311,295.708,307.733,306.235,303.862L306.235,303.862z M293.883,291.885c-8.803-0.403-18.29-0.52-26.259-2.909
	c-38.88,6.531-74.624,5.549-109.043-2.325c0.42,1.292,0.42,1.292,3.929,6.054c9.477,10.105,18.954,16.486,32.661,21.43
	c10.623,2.175,10.623,2.175,18.603,3.228c12.63-1.628,25.467-4.047,38.239-7.729c4.813-1.99,9.623-3.979,14.5-5.905
	c-0.084-0.764-0.103-1.468-0.21-2.09c-10.961,3.07-10.961,3.07-16.874,4.401c-27.147,3.944-48.038,2.015-70.165-7.167
	c-0.481-0.513,0.367-1.308,0.585-1.75c12.821,4.684,12.821,4.684,18.825,6.508c17.802,3.381,34.582,3.636,54.271-0.284
	C266.612,299.428,280.264,294.322,293.883,291.885L293.883,291.885z M286.898,275.956c-6.468-0.789-15.753-0.855-20.544-4.777
	c-0.221-1.594-0.221-1.594-0.642-2.043c-27.38-9.189-43.217-36.414-56.096-60.162c-4.033-8.361-8.07-17.073-11.129-26.105
	c-1.365,0.918-3.854,16.235-4.444,19.678c-0.254,8.891,0.104,17.576,1.429,25.949c3.946,14.208,10.549,27.015,20.207,37.313
	c16.331,7.404,32.544,12.995,51.13,16.362c2.028-0.208,15.75-4.067,15.937-4.369c-33.528-1.493-68.052-18.642-77.164-49.893
	c0.754-1.068,1.183-1.11,1.98-0.774C219.548,258.568,250.296,275.418,286.898,275.956L286.898,275.956z M264.76,287.458
	c-0.151-0.338-0.309-0.671-0.489-0.863c-28.193,2.996-49.972-3.267-69.307-17.953c-8.699-9.275-8.699-9.275-9.641-10.794
	c0.505-0.474,1.011-0.948,1.52-1.425c4.579,5.562,4.579,5.562,10.471,11.337c14.532,11.258,30.765,16.353,51.05,17.645
	c5.367-0.224,10.724-0.439,16.085-0.659c0.191-0.303,0.446-0.542,0.702-0.781c-20.307-3.671-39.195-10.246-56.44-19.314
	c-5.121-3.255-10.24-6.511-15.383-9.618c-7.085-5.863-14.256-11.643-21.003-17.818c2.607,28.211,19.356,44.722,43.56,54.248
	C231.611,291.619,248.357,290.816,264.76,287.458L264.76,287.458z M288.505,261.222c-21.034-3.112-32.937-15.274-41.817-32.549
	c-6.109-18.556-7.309-35.944-6.047-57.324c1.148-10.817,1.148-10.817,2.841-21.9c-6.851,6.424-11.857,17.373-15.948,25.055
	c-4.269,11.215-4.269,11.215-6.061,17.099c-2.255,10.654-2.271,20.647-1.957,30.811c11.535,17.558,24.449,36.582,45.309,44.427
	c3.617,0.458,6.184-0.871,10.085-2.481c-5.89-1.697-5.89-1.697-12.846-4.545c-17.505-9.669-25.815-23.282-30.4-43.265
	c-0.415-5.019-0.827-10.041-1.183-14.998c0.397-0.252,0.855-0.444,1.233-0.553c0.239,0.254,0.396,0.594,0.55,0.922
	c0.371,3.62,0.741,7.242,1.03,10.939c3.485,18.975,10.347,31.89,25.124,42.561c6.596,3.306,13.574,5.658,20.781,7.919
	C287.794,261.65,287.794,261.65,288.505,261.222L288.505,261.222z M204.169,318.31c-0.058-0.062-0.201-0.047-0.351-0.029
	C203.969,318.262,204.111,318.248,204.169,318.31L204.169,318.31z M209.701,291.488L209.701,291.488L209.701,291.488z
	 M217.171,217.881"/>
<g>
	<path d="M521.043,308.845c0,10.548-9.645,19.103-21.538,19.103c-11.896,0-21.541-8.553-21.541-19.103
		c0-10.55,9.645-19.103,21.541-19.103C511.398,289.742,521.043,298.294,521.043,308.845"/>
	<path d="M491.186,611.935c3.853-2.433,7.832-4.925,11.765-7.386c0.967-0.603,1.934-1.208,2.901-1.814l1.07-41.618
		c-4.639-1.703-10.374-3.62-16.753-5.7L491.186,611.935z"/>
	<path d="M502.766,722.784c-2.973-2.684-6.313-5.561-9.737-8.412l1.116,62.1c2.384-3.041,4.929-5.961,7.469-8.799L502.766,722.784z"
		/>
	<path d="M503.427,697.123l1.708-66.487c-5.096,2.998-9.593,5.739-13.465,8.294l0.876,48.554
		C496.081,690.702,499.791,693.953,503.427,697.123"/>
	<path d="M498.493,530.636c2.96,1.219,6.019,2.479,9.116,3.767l5.337-207.692c-3.851,2.287-8.473,3.624-13.445,3.624
		c-4.97,0-9.596-1.338-13.447-3.627l3.604,200.279C492.491,528.164,495.443,529.38,498.493,530.636"/>
	<path d="M500.408,789.982c-2.402,2.796-4.333,5.607-5.87,8.355l0.801,44.565l2.104,6.169l2.235-6.169l1.378-53.649
		C500.844,789.495,500.615,789.741,500.408,789.982"/>
	<g>
		<path d="M494.136,776.484c0.644-0.821,1.306-1.628,1.968-2.434c-1.93-2.274-3.912-4.514-5.92-6.733
			c-2.246-2.482-4.521-4.952-6.646-7.521c-11.532-13.927-6.563-19.698-4.176-26.064c1.207-3.218,8.354-10.091,16.408-17.055
			c-3.332-2.828-6.817-5.685-10.182-8.354c-3.25,2.893-6.371,5.742-9.209,8.495c-19.485,18.901-14.116,28.253-10.14,37.407
			c3.111,7.164,15.109,16.403,25.182,25.903C492.281,778.926,493.174,777.713,494.136,776.484"/>
		<path d="M479.082,619.706c4.844-3.183,10.422-6.72,16.154-10.321c-10.866-6.805-22.174-13.835-30.986-19.715
			c-15.508-10.346,4.572-22.683,15.708-28.054c3.062-1.479,7.708-3.23,13.332-5.18c-3.8-1.25-7.864-2.564-12.104-3.935
			c-4.648-1.503-9.566-3.095-14.521-4.729c-2.582,1.216-5.125,2.445-7.583,3.693c-14.428,7.329-30.554,19.625-23.226,35.948
			c5.69,12.679,20.487,19.729,32.893,26.563C472.198,615.88,475.645,617.786,479.082,619.706"/>
		<path d="M506.181,787.835c-0.48-0.814-0.999-1.612-1.514-2.406c-1.46,1.462-2.84,2.92-4.093,4.365
			c3.176,3.896,6.022,8.19,7.091,12.914c1.289,5.702-1.067,11.932-3.327,17.229c0.482-0.236,1.245-0.866,1.562-1.166
			c0.565-0.545,1.02-1.168,1.42-1.813c4.01-6.464,5.163-12.787,3.028-19.889C509.385,793.859,507.915,790.777,506.181,787.835"/>
		<path d="M587.527,499.135c-1.593-12.933-11.933-22.086-14.716-23.681c-2.782-1.596-0.993-3.777-5.367-8.155
			s-15.907-9.153-30.421-8.955c-14.517,0.2-18.691,11.741-17.24,12.338c1.447,0.598,1.643,1.774,1.643,1.774
			c-3.527-0.499-2.498,3.398,4.66,8.174c7.158,4.776,20.083,10.348,23.86,9.354c2.697-0.71,5.521,0.558,7.299,2.64
			c0.76,0.887,1.325,1.926,1.612,3.02c0.238,0.931,0.279,1.898,0.098,2.843c-0.891,4.583-5.845,7.779-9.449,10.121
			c-5.287,3.435-10.924,6.284-16.262,9.632c-6.396,4.015-17.711,8.766-30.641,14.094c9.004,3.714,18.598,7.732,27.677,11.961
			c6.083-2.017,12.148-4.078,17.877-6.156C573.409,528.983,589.118,512.068,587.527,499.135 M537.671,468.426
			c-2.312,0-4.188-0.892-4.188-1.991c0-1.098,1.878-1.987,4.188-1.987c2.312,0,4.188,0.891,4.188,1.987
			C541.857,467.534,539.981,468.426,537.671,468.426"/>
		<path d="M517.935,623.896c-0.158-0.105-0.327-0.219-0.492-0.326c-1.789,0.994-3.574,1.99-5.316,2.994
			c-3.838,2.211-7.348,4.266-10.606,6.22c16.718,10.344,25.887,18.359,26.357,28.719c0.378,8.302-12.521,20.665-26.982,33.409
			c1.329,1.162,2.657,2.32,3.971,3.464c2.126,1.852,4.264,3.721,6.387,5.592c2.34-1.829,4.438-3.434,6.089-4.657
			c9.94-7.361,27.638-24.276,29.027-37.605C547.759,648.371,532.845,633.843,517.935,623.896"/>
		<path d="M537.606,551.467c-26.245-13.332-60.843-24.873-74.164-33.229c-5.337-3.35-10.976-6.199-16.261-9.634
			c-3.605-2.342-8.563-5.537-9.45-10.121c-0.183-0.942-0.145-1.912,0.098-2.843c0.287-1.094,0.853-2.132,1.611-3.021
			c1.778-2.081,4.602-3.35,7.3-2.639c3.776,0.994,16.703-4.577,23.858-9.354c7.159-4.775,8.19-8.672,4.66-8.175
			c0,0,0.197-1.178,1.646-1.773c1.449-0.597-2.726-12.138-17.241-12.337c-14.513-0.2-26.046,4.577-30.418,8.953
			c-4.375,4.378-2.586,6.562-5.371,8.156c-2.782,1.596-13.123,10.747-14.712,23.682c-1.591,12.935,14.116,29.848,39.367,38.999
			c25.252,9.153,57.065,18.108,68.202,23.479c11.134,5.373,31.217,17.71,15.708,28.056c-15.51,10.349-38.773,24.275-53.687,34.226
			c-14.912,9.947-29.823,24.477-28.433,37.808c1.392,13.331,19.088,30.244,29.027,37.605c9.942,7.361,35.595,28.057,37.979,34.423
			c2.387,6.367,7.357,12.14-4.176,26.065c-0.797,0.962-1.612,1.906-2.441,2.847c-4.582,5.193-9.379,10.233-13.623,15.655
			c-4.81,6.147-8.974,12.767-11.48,19.938c-1.326,3.796-2.178,7.723-2.453,11.689c-0.147,2.096-0.139,4.202,0.027,6.299
			c0.318,3.982,1.525,8.223,3.684,11.738c1.313,2.143,2.722,4.339,2.868,4.195c0.335-0.32-3.03-9.146-3.622-13.066
			c-0.985-6.527,1.017-18.9,11.444-31.04c10.429-12.139,28.918-24.674,32.896-33.828c3.977-9.152,9.344-18.504-10.142-37.407
			c-19.484-18.901-52.094-42.185-51.5-55.316c0.599-13.13,15.114-22.483,41.359-37.605c10.676-6.151,21.813-11.725,32.24-18.207
			c10.884-6.767,21.049-15.63,20.392-28.341C562.162,565.063,548.403,556.953,537.606,551.467 M458.994,464.446
			c2.311,0,4.187,0.891,4.187,1.988c0,1.101-1.876,1.99-4.187,1.99c-2.313,0-4.188-0.891-4.188-1.99
			C454.806,465.337,456.682,464.446,458.994,464.446"/>
	</g>
	<g>
		<g>
			<path id="SVGID_1_" d="M644.879,650.658c4.948-17.714,31.61-122.267,43.6-169.354c1.085,42.055,3.408,129.021,4.447,165.061
				c-14.182,0.934-26.493,2.802-35.285,4.45c-3.659,0.245-8.521,0.812-13.35,1.9L644.879,650.658z M266.055,647.133
				c4.948-17.711,31.61-122.265,43.598-169.354c1.12,43.598,4.511,129.414,4.559,162.776c0.002,1.684-9.243,5.805-17.605,6.095
				c-7.716,0.266-6.149,0.482-13.859,0.482c-3.396,0-10.396,0.508-17.285,2.055L266.055,647.133z M692.015,468.699
				c4.123,15.158,38.425,141.848,44.68,166.803c1.329,5.298,2.404,9.237,3.284,12.137c-14.497-1.933-28.836-2.181-41.855-1.563
				C696.596,596.506,693.011,496.377,692.015,468.699 M319.083,641.036c-2.833-47.66-4.87-147.312-5.899-175.861
				c4.131,15.158,38.432,141.846,44.686,166.8c1.145,4.559,1.064,8.647,3.138,11.18c1.248,1.528-11.793,1.942-21.512,3.025
				c-1.06,0.116-2.192,0.177-3.364,0.177C328.474,646.354,319.255,643.963,319.083,641.036 M504.711,328.252
				c0,0-0.129-0.094-0.362-0.235 M505.932,380.653c-0.006-0.242-0.012-0.484-0.017-0.728 M492.983,382.114
				c-0.312,18.832-0.683,36.587-0.395,42.048l0.09,1.021l-2.089-1.543c-17.979-13.066-61.637-26.653-94.384-15.678
				c-32.75,10.975-59.656,32.513-73.197,37.105c-15.409,5.224-37.882,4.702-30.174-4.703c7.705-9.407,18.619-13.587,5.134-14.114
				c-13.484-0.52-31.464,6.797-26.965,17.771c4.41,10.773,21.202,17.015,38.215,16.744l0.028,1.095
				c-6.655,26.581-41.183,164.314-48.204,188.484c-7.017,2.137-13.013,5.558-13.61,10.896
				c-2.053,18.401,21.808,45.629,69.347,43.377c55.214-2.611,60.354-55.919,53.934-58.531c-2.18-0.886-3.528-1.221-4.284-1.127
				c-7.17-29.61-43.163-161.342-51.028-184.479c16.563-1.161,37.462-5.719,64.112-17.504c29.534-13.063,70.631-13.063,95.025,1.046
				c8.288,4.792,15.021,7.774,19.614,9.097c0.399,6.906,0.866,13.947,1.35,19.132c1.353,14.521,3.465,15.188,4.211,9.921
				c0.376-2.646,1.993-16.704,3.506-30.03c4.468-0.792,12.172-3.936,22.119-9.688c24.397-14.11,65.489-14.11,95.022-1.044
				c28.541,12.622,50.479,16.952,67.567,17.702l0.144,6.272c-6.655,26.583-41.182,164.318-48.2,188.486
				c-7.021,2.138-13.017,5.558-13.612,10.896c-2.054,18.399,21.803,45.625,69.348,43.375c55.217-2.61,60.354-55.918,53.929-58.531
				c-1.83-0.741-3.068-1.096-3.868-1.137c-0.788-0.131-1.575-0.237-2.364-0.358c-4.639-21.656-43.604-170.414-49.87-186.301
				l0.675-2.65c15.778-0.563,30.648-6.668,34.767-16.711c4.492-10.975-13.481-18.292-26.97-17.768
				c-13.479,0.523-2.568,4.702,5.14,14.11c7.701,9.406-14.769,9.928-30.179,4.703c-13.534-4.592-40.452-26.129-73.193-37.106
				c-32.741-10.975-76.402,2.614-94.384,15.678c-1.736,1.26-3.249,2.412-4.543,3.447l-0.775-0.553
				c1.045-1.652,1.825-3.555,2.105-5.506c0.523-3.61,0.304-19.301-0.099-36.939 M493,381.12c-0.005,0.332-0.011,0.663-0.016,0.994
				 M492.798,330.672c0.01,0.098,0.021,0.199,0.029,0.302"/>
		</g>
		<g>
			<defs>
				<path id="SVGID_2_" d="M644.879,650.658c4.948-17.714,31.61-122.267,43.6-169.354c1.085,42.055,3.408,129.021,4.447,165.061
					c-14.182,0.934-26.493,2.802-35.285,4.45c-3.659,0.245-8.521,0.812-13.35,1.9L644.879,650.658z M266.055,647.133
					c4.948-17.711,31.61-122.265,43.598-169.354c1.12,43.598,4.511,129.414,4.559,162.776c0.002,1.684-9.243,5.805-17.605,6.095
					c-7.716,0.266-6.149,0.482-13.859,0.482c-3.396,0-10.396,0.508-17.285,2.055L266.055,647.133z M692.015,468.699
					c4.123,15.158,38.425,141.848,44.68,166.803c1.329,5.298,2.404,9.237,3.284,12.137c-14.497-1.933-28.836-2.181-41.855-1.563
					C696.596,596.506,693.011,496.377,692.015,468.699 M319.083,641.036c-2.833-47.66-4.87-147.312-5.899-175.861
					c4.131,15.158,38.432,141.846,44.686,166.8c1.145,4.559,1.064,8.647,3.138,11.18c1.248,1.528-11.793,1.942-21.512,3.025
					c-1.06,0.116-2.192,0.177-3.364,0.177C328.474,646.354,319.255,643.963,319.083,641.036 M504.711,328.252
					c0,0-0.129-0.094-0.362-0.235 M505.932,380.653c-0.006-0.242-0.012-0.484-0.017-0.728 M492.983,382.114
					c-0.312,18.832-0.683,36.587-0.395,42.048l0.09,1.021l-2.089-1.543c-17.979-13.066-61.637-26.653-94.384-15.678
					c-32.75,10.975-59.656,32.513-73.197,37.105c-15.409,5.224-37.882,4.702-30.174-4.703c7.705-9.407,18.619-13.587,5.134-14.114
					c-13.484-0.52-31.464,6.797-26.965,17.771c4.41,10.773,21.202,17.015,38.215,16.744l0.028,1.095
					c-6.655,26.581-41.183,164.314-48.204,188.484c-7.017,2.137-13.013,5.558-13.61,10.896
					c-2.053,18.401,21.808,45.629,69.347,43.377c55.214-2.611,60.354-55.919,53.934-58.531c-2.18-0.886-3.528-1.221-4.284-1.127
					c-7.17-29.61-43.163-161.342-51.028-184.479c16.563-1.161,37.462-5.719,64.112-17.504c29.534-13.063,70.631-13.063,95.025,1.046
					c8.288,4.792,15.021,7.774,19.614,9.097c0.399,6.906,0.866,13.947,1.35,19.132c1.353,14.521,3.465,15.188,4.211,9.921
					c0.376-2.646,1.993-16.704,3.506-30.03c4.468-0.792,12.172-3.936,22.119-9.688c24.397-14.11,65.489-14.11,95.022-1.044
					c28.541,12.622,50.479,16.952,67.567,17.702l0.144,6.272c-6.655,26.583-41.182,164.318-48.2,188.486
					c-7.021,2.138-13.017,5.558-13.612,10.896c-2.054,18.399,21.803,45.625,69.348,43.375c55.217-2.61,60.354-55.918,53.929-58.531
					c-1.83-0.741-3.068-1.096-3.868-1.137c-0.788-0.131-1.575-0.237-2.364-0.358c-4.639-21.656-43.604-170.414-49.87-186.301
					l0.675-2.65c15.778-0.563,30.648-6.668,34.767-16.711c4.492-10.975-13.481-18.292-26.97-17.768
					c-13.479,0.523-2.568,4.702,5.14,14.11c7.701,9.406-14.769,9.928-30.179,4.703c-13.534-4.592-40.452-26.129-73.193-37.106
					c-32.741-10.975-76.402,2.614-94.384,15.678c-1.736,1.26-3.249,2.412-4.543,3.447l-0.775-0.553
					c1.045-1.652,1.825-3.555,2.105-5.506c0.523-3.61,0.304-19.301-0.099-36.939 M493,381.12c-0.005,0.332-0.011,0.663-0.016,0.994
					 M492.798,330.672c0.01,0.098,0.021,0.199,0.029,0.302"/>
			</defs>
			<clipPath id="SVGID_4_">
				<use xlink:href="#SVGID_2_"  overflow="visible"/>
			</clipPath>
			<g clip-path="url(#SVGID_4_)">
				<g>
					<rect id="SVGID_3_" x="509.335" y="214.802" width="659.05" height="511.557"/>
				</g>
				<g display="none">
					<defs>
						<rect id="SVGID_5_" x="509.335" y="214.802" width="659.05" height="511.557"/>
					</defs>
					<clipPath id="SVGID_6_" display="inline">
						<use xlink:href="#SVGID_5_"  overflow="visible"/>
					</clipPath>
					<g transform="matrix(1 0 0 1 9.099625e-006 1.281486e-005)" display="inline" clip-path="url(#SVGID_6_)">
						
							<image overflow="visible" enable-background="new    " width="1283" height="996" xlink:href="49F42D53.png"  transform="matrix(0.5584 0 0 0.4585 480.668 242.2607)">
						</image>
					</g>
				</g>
			</g>
			<path clip-path="url(#SVGID_4_)" d="M518.218,376.921c-4.802-7.576-5.399-13.344-2.569-19.154
				c1.146,1.104,2.249,2.265,3.428,3.498c13.895,7.499,27.021-3.946,30.84-13.485c1.215-5.738,1.215-5.738,3.273-20.335
				c0.498,0.384,3.102,5.631,5.381,9.153c5.192,5.512,7.561,5.553,8.455,0.017c-0.3-1.917-0.65-3.782-0.994-5.64
				c3.702,4.483,11.659,15.205,12.625,6.372c-0.441-2.559-0.441-2.559-2.545-8.862c3.621,3.593,12.268,12.744,10.965,4.064
				c-0.941-1.824-1.811-3.57-2.725-5.27c4.473,3.599,8.743,7.418,13.701,8.531c2.465-2.816-0.273-5.655-2.699-9.821
				c3.965,3.208,10.83,8.91,15.18,8.937c0.438-0.499,0.871-0.995,1.258-1.437c-0.879-3.996-3.154-6.395-5.934-9.987
				c5.173,2.952,10.586,7.252,14.21,4.243c-0.872-3.691-2.678-5.33-5.327-8.593c3.223,1.479,17.147,7.98,12.146-0.497
				c-1.305-1.257-2.524-2.433-3.752-3.617c2.732,0.904,9.383,3.148,9.255-0.744c-1.229-2.302-4.354-3.891-5.519-5.623
				c2.407,0.793,12.731,3.831,10.602-1.476c-1.147-1.107-2.223-2.142-3.286-3.168c-5.181-2.953-5.181-2.953-5.742-3.603
				c3.623,0.545,12.998,2.563,14.287-1.179c-1.749-3.312-6.808-4.625-9.65-5.738c4.47-0.269,9.429,0.036,12.133-3.055
				c-0.854-3.871-6.54-5.59-9.551-6.661c2.602-1.047,16.385,0.944,14.148-5.375c-4.058-3.911-9.854-4.211-14.252-4.994
				c-28.564,8.466-58.398,18.554-77.947,39.27c-2.614,4.292-4.439,8.632-6.15,13.492c-0.715,5.006-1.355,10.083-2.034,15.226
				c-1.538,6.751-3.745,10.726-8.173,15.305c-4.902,2.694-17.308,10.267-24.487,0.094c-0.056-0.258-0.033-0.445-0.019-0.628
				c5.677-6.324,12.666-11.896,15.592-20.56c1.106-8.19-0.332-17.515,0.609-25.854c4.063-11.741,12.896-17.162,24.875-20.364
				c17.895-2.883,17.895-2.883,27.615-4.801c16.926-4.839,31.94-12.326,50.616-13.848c17.888,1.17,36.82,5.485,55.458,10.947
				c3.051,1.509,3.051,1.509,4.168,2.488c-3.729,2.002-8.144,2.22-12.65,2.857c-9.952,0.575-9.952,0.575-25.392,0.641
				c-0.389,0.443-0.389,0.443-0.317,1.017c0.149,0.146,0.303,0.292,0.535,0.516c9.502,1.226,11.862,1.264,18.479,2.252
				c6.168,1.167,15.717,2.028,21.44,6.938c-0.64,0.4-1.272,0.806-1.832,1.283c-12.893,3.128-28.413,1.19-42.962-0.227
				c-0.146,0.166-0.265,0.458-0.383,0.753c0.354,0.239,0.711,0.48,1.02,0.776c7.046,1.301,36.975,4.012,43.323,12.066
				c-0.409,0.313-0.831,0.624-1.238,0.944c-13.546,2.095-30.581-1.821-45.806-6.02c-0.661,0.275-0.765,0.075-1.021,0.85
				c0.481,0.256,0.989,0.641,1.494,1.029c13.002,4.806,27.039,9.08,39.684,17.199c0.891,0.759,1.779,1.51,2.7,2.398
				c-1.061,1.212-3.964,0.66-5.62,0.786c-16.123-3.336-32.277-8.733-48.612-14.415c-0.193,0.22-0.312,0.518-0.429,0.81
				c0.432,0.311,0.863,0.629,1.298,0.944c14.907,6.338,32.788,12.178,46.32,23.797c-5.127,0.855-12.271-2.575-17.995-4.428
				c-10.432-4.361-21.049-9.309-31.469-14.165c-0.338,0.388-0.338,0.388-0.154,0.975c14.146,8.342,28.935,15.788,41.402,27.806
				c-0.191,0.219-0.307,0.514-0.47,0.869c-14.456-4.28-30.243-15.731-43.72-25.162c-0.38-0.057-0.675-0.037-1.017,0.038
				c-0.024,0.179-0.043,0.367-0.112,0.608c11.026,8.999,24.021,18.168,33.373,29.415c0.54,0.829,1.084,1.657,1.654,2.613
				c-0.24,0.276-0.482,0.551-0.771,0.882c-14.145-5.598-26.881-16.349-39.896-26.146c-0.247-0.036-0.501-0.076-0.669-0.033
				c-0.073,0.234-0.063,0.553-0.104,0.914c3.236,2.919,23.593,19.793,22.448,23.678c-4.52,0.012-12.646-6.496-16.924-9.503
				c-13.747-11.214-13.747-11.214-15.37-12.274c-0.272,0.148-0.465,0.368-0.657,0.588c3.225,4.535,11.27,15.334,8.915,19.478
				c-5.403,0.373-18.125-15.232-21.813-19.399c-2.403,2.258,14.994,19.136,10.802,23.928c-6.743-1.004-17.449-16.818-21.737-20.951
				c-2.666,1.607,12.603,24.458,4.091,24.996c-6.943-4.963-10.292-12.258-15.854-18.637c-0.22,0.094-0.489,0.243-0.683,0.462
				c1.803,5.5,5.078,12.417,2.475,16.517c-6.051-0.34-11.612-16.886-15.823-20.127c-0.189,0.218-0.382,0.437-0.552,0.789
				c1.451,4.955,2.621,10.556,0.549,14.049c-4.918-5.347-7.131-14.906-8.961-21.041c-0.5-0.073-0.998-0.15-1.422-0.151
				c1.003,3.204,7.172,27.758,12.724,21.414c0.301-2.76,0.278-5.627-0.08-8.617c4.297,6.067,7.317,12.441,13.834,15.467
				c4.028-0.894,2.102-8.036,1.137-11.611c3.912,4.885,9.17,12.898,15.018,13.149c2.314-2.647,1.408-6.774,0.504-10.902
				c-3.111-8.689-3.111-8.689-2.893-8.787c3.542,4.02,13.793,16.65,19.156,15.514c2.606-2.979-1.736-10.112-4.131-14.147
				c3.849,3.501,8.604,8.39,13.235,9.705c4.777,0.024,2.035-5.876,0.472-9.413c-1.273-2.242-2.552-4.49-3.831-6.743
				c15.052,11.662,30.571,22.146,45.339,34.443c11.861,11.434,27.373,25.473,35.305,39.623
				c-13.946-3.576-27.193-11.971-40.147-21.51c-11.443-10.624-20.712-21.8-34.326-28.813c-0.111,0.298-0.278,0.643-0.364,1.068
				c2.29,1.402,4.595,2.807,6.927,4.339c13.902,10.553,26.562,23.97,34.103,39.379c-0.095,0.109-0.191,0.22-0.287,0.329
				c-13.758-4.108-28.55-13.482-38.908-26.313c-4.436-4.275-8.144-7.14-13.479-9.428c-1.352,1.545,1.979,2.416,3.313,2.986
				c10.339,7.22,15.941,15.166,20.582,26.142c-3.858,4.411-17.844-8.145-21.594-11.759c-1.074-1.347-2.208-2.643-3.26-3.856
				c-3.011-4.94-3.011-4.94-3.548-5.455c-0.625-0.096-0.625-0.096-1.107,0.458c1.122,7.591,1.418,14.994-2.78,19.792
				c-3.746-0.559-13.319-12.021-16.047-15.361c-4.338-7.133-7.461-14.208-10.682-21.481c-0.459-0.441-0.968-0.831-1.476-1.22
				c-0.145,0.166-0.289,0.331-0.434,0.496c2.069,5.049,4.02,10.072,6.605,15.012c1.727,4.818,4.581,12.35,3.721,16.396
				c-8.421-8.115-15.199-16.175-22.008-25.482c-4.199-6.483-4.199-6.483-4.935-7.091c-0.254-0.039-0.499-0.078-0.674-0.041
				c-0.019,0.185-0.086,0.424-0.157,0.66c3.677,7.409,6.885,15.683,3.863,21.72c-7.952-8.17-11.952-16.499-16.705-26.059
				c-0.307-0.294-0.659-0.538-1.014-0.774c-0.189,0.218-0.383,0.438-0.626,0.715c1.346,3.939,5.592,17.794,1.818,19.851
				c-4.648-4.68-6.819-7.688-9.628-13.344c-0.388-0.373-0.809-0.681-1.244-0.999c-0.145,0.167-0.291,0.333-0.482,0.554
				C535.345,376.849,529.514,385.773,518.218,376.921L518.218,376.921z M560.366,336.8c2.395,2.103,2.395,2.103,3.121,2.401
				c3.621-2.203,0.502-9.28-0.888-13.667c-2.374-1.474-4.878-2.972-7.034-4.851c-1.064,2.026-1.064,2.026-1.612,3.939
				C555.702,328.752,557.751,332.859,560.366,336.8L560.366,336.8z M611.599,380.792c6.363,5.627,12.47,11.712,18.592,17.612
				c0.21-0.404,0.423-0.81,0.632-1.216c-6.119-5.896-12.166-11.725-18.258-17.499C612.271,380.021,611.938,380.406,611.599,380.792
				L611.599,380.792z M571.325,335.569c1.576,1.417,3.024,2.814,4.717,3.632c3.006-1.985-2.863-13.339-4.473-16.82
				c-1.904-1.527-3.859-3.005-5.813-4.48c1.238,3.427,1.756,6.37-1.139,7.746C566.847,328.916,569.071,332.174,571.325,335.569
				L571.325,335.569z M555.923,319.306c1.213,0.862,2.437,1.731,3.675,2.725c9.069,5.281,4.553-4.87,1.311-9.719
				C558.88,314.322,557.426,316.782,555.923,319.306L555.923,319.306z M638.53,387.737c6.131,5.402,6.131,5.402,11.719,9.666
				c0.211-0.404,0.424-0.81,0.592-1.163c-10.414-8.098-18.732-17.443-27.233-27.564c-0.314,0.205-0.633,0.405-0.998,0.66
				C627.718,375.584,633.054,381.745,638.53,387.737L638.53,387.737z M578.819,329.576c2.114,1.935,4.217,4.367,6.739,4.873
				c-0.424-3.874-4.11-9.966-7.404-13.141c-0.565,2.096-2.087,2.055-4.017,2.333C575.706,325.557,577.22,327.525,578.819,329.576
				L578.819,329.576z M563.727,313.604c2.195,2.013,12.235,12.299,12.663,6.003c-1.963-4.843-4.646-9.671-8.591-13.876
				c-2.042,1.695-4.06,3.513-6.073,5.339C562.392,311.913,563.06,312.762,563.727,313.604L563.727,313.604z M580.974,321.788
				c3.806,3.562,11.269,11.469,16.013,12.18c0.108-0.297,0.305-0.522,0.497-0.741c-2.556-5.619-5.907-10.171-10.649-14.741
				c-4.246-0.639-8.461-3.88-12.418-6.774C576.325,315.175,578.138,318.743,580.974,321.788L580.974,321.788z M569.415,304.854
				c4.426,3.962,14.646,15.024,18.65,10.447c-1.736-6.247-5.622-10.499-10.687-15.688
				C574.735,301.338,572.099,303.064,569.415,304.854L569.415,304.854z M630.896,360.342c16.92,14.684,34.544,28.721,51.411,43.456
				c0.339-0.386,0.679-0.774,0.968-1.105c-9.569-8.406-9.569-8.406-51.414-43.453C631.569,359.573,631.232,359.959,630.896,360.342
				L630.896,360.342z M590.867,317.466c3.876,6.779,8.854,12.019,18.328,15.619c-1.31-6.16-7.356-11.597-11.336-16.684
				c6.124,4.436,12.394,9.149,19.828,10.743c-2.34-6.324-9.176-11.203-14.631-15.68c7.187,2.922,15.362,9.703,23.344,9.266
				c-3.772-4.449-9.416-7.809-13.415-11.353c5.583,2.799,11.754,5.362,17.391,4.628c-4.965-4.656-11.851-8.055-16.783-11.882
				c6.772,2.892,12.777,6.785,20.188,5.972c-3.428-8.274-14.368-4.755-18.938-10.507c-0.334-0.42-0.644-0.719-0.943-1.009
				c0.066-0.241,0.135-0.482,0.151-0.668c3.855,0.764,7.649,1.576,11.529,2.465c4.092,0.487,12.451,2.545,15.376,0.488
				c-8.028-5.503-18.89-6.311-26.869-7.496c-0.386-0.372-0.692-0.667-1.049-0.905c0.118-0.298,0.308-0.515,0.503-0.738
				c6.988,1.041,25.607,4.75,29.953-0.216c-7.852-5.531-16.859-6.688-24.967-8.707c-8.033,2.732-8.033,2.732-13.76,5.244
				c3.19,2.165,3.19,2.165,6.63,5.168c5.773,8.72-4.702,5.539-9.906,3.572c1.313,1.573,2.651,3.269,3.987,4.961
				c0.007,0.015,0.015,0.03,0.021,0.044c0.829,1.706,1.268,3.122,0.813,4.896c-3.248-0.826-7.285,0.161-11.155-2.031
				c2.278,2.724,2.95,6.284,4.592,8.761c-4.745,0.881-10.347-0.998-14.166-4.968C587.345,310.481,588.975,314.157,590.867,317.466z
				 M578.808,298.954c3.181,2.662,16.826,14.793,19.383,11.872c-0.458-5.124-9.552-12.461-13.542-15.491
				C582.668,296.476,580.763,297.686,578.808,298.954L578.808,298.954z M647.997,361.273c10.811,8.281,20.765,17.063,30.711,26.649
				c4.018,4.28,8.063,8.685,12.106,13.091c16.879,11.189,30.729,13.247,46.303,10.767c0.064-0.24,0.212-0.407,0.355-0.572
				c-14.066-5.525-28.117-14.29-41.338-23.372c-10.159-8.058-18.535-16.541-27.487-25.987c-3.324,2.191-12.113-4.042-16.104-6.259
				c2.029,2.358,4.08,4.847,6.141,7.333c17.19,18.403,32.611,33.674,54.646,41.384c0.032,0.44,0.145,0.957,0.256,1.472
				c-26.331-7.791-45.967-30.988-65.306-52.883c-2.158-1.567-4.239-3.064-6.367-4.507c1.664,1.809,3.328,3.62,4.946,5.478
				C649.726,357.852,651.212,359.696,647.997,361.273L647.997,361.273z M586.327,294.71c2.557,1.751,18.66,13.82,18.637,7.392
				c-2.387-4.844-7.052-8.218-11.262-11.465C591.277,291.957,588.804,293.335,586.327,294.71L586.327,294.71z M678.17,370.32
				c12.008,11.269,23.936,20.529,37.6,28.613c6.392,1.885,12.631,3.63,18.782,4.172c11.693,0.492,20.227-1.352,29.177-5.946
				c-0.104-0.201-0.257-0.347-0.409-0.496c-24.886-9.446-49.214-19.367-73.39-33.821c-4.033-2.966-7.985-5.865-11.984-8.705
				c-3.62-0.539-7.402-2.353-11.104-4.091c0.261,0.354,0.524,0.706,0.808,1.182c9.107,8.779,17.93,17.077,27.752,24.713
				c15.242,10.627,27.481,15.506,42.989,17.136c0.305,0.293,0.612,0.59,0.992,0.956c-0.727,1.636-8.183-0.16-10.308-0.476
				c-25.12-6.117-45.939-24.24-66.024-45.133c-4.274-2.692-8.598-5.331-12.842-7.902c4.022,3.469,4.022,3.469,14.967,14.017
				C669.366,359.903,673.661,365.157,678.17,370.32L678.17,370.32z M595.579,290.105c1.309,0.756,16.56,8.646,16.006,3.632
				c-2.125-3.064-5.783-5.166-8.68-6.84C601.612,287.073,601.612,287.073,595.579,290.105L595.579,290.105z M723.81,403.125
				c0.206,0.092,0.354,0.236,0.589,0.461C724.164,403.36,724.016,403.217,723.81,403.125L723.81,403.125z M657.007,334.362
				c27.711,18.473,65.022,42.741,92.803,38.399c0.535,0.515,0.535,0.515,0.903,1.386c-0.915,1.046-7.042,0.634-8.827,0.742
				c-21.307-1.928-42.043-12.255-63.347-24.347c0.502,0.886,1.046,1.719,0.916,2.508c13.646,12.136,31.537,20.228,46.808,27.118
				c16.162,5.711,29.617,4.042,42.541,0.224c6.7-3.305,6.7-3.305,7.106-3.928c-29.355-6.433-60.816-12.557-89.268-33.563
				c-1.937,1.081-6.399-0.271-8.995-0.847C672.787,340.519,657.731,334.351,657.007,334.362L657.007,334.362z M662.125,325.774
				c7.05,3.237,13.94,7.128,20.76,11.263c2.496,2.305,4.992,4.61,7.565,6.988c20.067,13.341,42.914,22.547,63.23,24.641
				c11.409-0.799,24.478-3.962,31.331-11.798c-30.093-4.296-60.475-7.142-91.384-25.336c-4.72,1.04-10.727-0.476-16.148-1.534
				c0.077,0.075,0.18,0.275,0.28,0.478c18.115,11.865,35.649,20.526,54.502,25.581c8.213,1.41,14.948,2.105,22.413,1.468
				c0.813,0.685,0.813,0.685,1.129,1.29c-2.655,1.103-7.984,0.746-11.26,0.941c-18.285-2.166-35.924-9.403-54.219-19.611
				c-7.889-4.862-7.889-4.862-17.681-11.554C662.521,325.641,662.521,325.641,662.125,325.774L662.125,325.774z M621.512,279.814
				c9.073,2.036,20.758,3.841,27.23-0.492C639.165,271.717,628.432,277.539,621.512,279.814L621.512,279.814z M664.483,313.402
				c9.223,3.813,21.255,7.472,29.364,15.289c0.535,1.329,1.571,1.92,2.69,2.899c13.751,7.661,26.92,12.114,40.791,15.926
				c9.428,1.964,10.62,1.897,11.77,2.191c7.353-0.337,7.353-0.337,17.144-1.374c7.919-2.124,14.993-4.563,21.289-9.173
				c0.982-1.29,1.969-2.578,3.028-3.791c-29.733-2.935-61.907-4.047-93.224-19.687c-5.456,0.739-11.021,0.66-16.977,0.211
				c0.231,0.224,0.463,0.445,0.643,0.721c29.803,16.725,61.886,27.614,88.04,21.098c0.287,0.479,0.574,0.961,0.887,1.567
				c-26.771,7.546-63.815-5.58-94.262-24.145C666.503,313.518,666.503,313.518,664.483,313.402L664.483,313.402z M674.482,303.11
				c11.803,2.635,23.765,7.654,35.685,11.616c17.083,4.165,31.463,4.497,46.564,2.072c5.059-1.43,5.059-1.43,15.821-5.187
				c0.21,0.402,0.977,1.142,0.589,1.584c-18.521,7.466-36.344,8.491-59.823,4.058c-5.139-1.388-5.139-1.388-14.693-4.5
				c-0.062,0.551-0.042,1.181-0.076,1.86c4.278,1.886,8.505,3.825,12.732,5.765c11.137,3.718,22.269,6.31,33.184,8.189
				c6.792-0.672,6.792-0.672,15.796-2.263c11.512-3.96,19.321-9.346,26.946-18.062c2.772-4.139,2.772-4.139,3.068-5.28
				c-29.131,5.886-59.742,5.566-93.415-1.572C690.144,303.257,682.011,303.043,674.482,303.11L674.482,303.11z M679.677,289.104
				c31.372,0.747,56.904-13.287,65.619-40.984c0.666-0.272,1.034-0.223,1.738,0.76c-6.259,27.629-35.018,41.803-63.703,42.013
				c0.178,0.277,12.137,4.185,13.889,4.439c15.775-2.386,29.403-6.84,43.042-12.912c7.771-8.882,12.795-20.11,15.472-32.677
				c0.72-7.44,0.595-15.192-0.067-23.149c-0.677-3.097-3.575-16.871-4.791-17.738c-2.176,7.971-5.206,15.622-8.248,22.961
				c-9.86,20.799-22.089,44.603-45.115,51.9c-0.339,0.387-0.339,0.387-0.447,1.805C693.148,288.868,685.188,288.616,679.677,289.104
				L679.677,289.104z M699.24,300.128c14.237,3.552,28.642,4.828,42.122,5.214c20.286-7.705,33.829-21.902,34.659-47.032
				c-5.479,5.293-11.342,10.221-17.129,15.223c-4.255,2.605-8.483,5.346-12.714,8.083c-14.34,7.529-30.214,12.774-47.448,15.375
				c0.229,0.222,0.463,0.446,0.641,0.723c4.611,0.376,9.217,0.747,13.83,1.126c17.336-0.474,31.006-4.485,42.909-14.062
				c4.767-4.963,4.767-4.963,8.416-9.784c0.46,0.444,0.918,0.886,1.374,1.325c-0.731,1.327-0.731,1.327-7.729,9.327
				c-15.853,12.482-34.221,17.351-58.554,13.728C699.473,299.538,699.352,299.829,699.24,300.128L699.24,300.128z M677.565,275.88
				c0.63,0.405,0.63,0.405,8.088,2.205c6.068-1.78,11.938-3.647,17.432-6.382c12.14-9.045,17.383-20.359,19.427-37.205
				c0.063-3.295,0.199-6.519,0.337-9.744c0.116-0.289,0.234-0.586,0.428-0.806c0.33,0.113,0.73,0.296,1.085,0.537
				c-0.061,4.418-0.16,8.895-0.267,13.367c-2.938,17.708-9.386,29.599-23.919,37.656c-5.825,2.312-5.825,2.312-10.792,3.633
				c3.427,1.568,5.694,2.843,8.774,2.554c17.499-6.314,27.628-22.888,36.647-38.194c-0.235-9.075-0.75-18.008-3.215-27.608
				c-1.832-5.322-1.832-5.322-6.052-15.488c-3.893-7.004-8.73-16.957-14.929-22.931c2.006,9.964,2.006,9.964,3.528,19.671
				c2.147,19.152,1.986,34.657-2.33,51.039C705.056,263.33,695.451,273.802,677.565,275.88L677.565,275.88z M752.749,329.733
				c0.047-0.053,0.171-0.036,0.301-0.014C752.92,329.698,752.796,329.681,752.749,329.733L752.749,329.733z M746.668,305.573
				L746.668,305.573L746.668,305.573z"/>
			<path clip-path="url(#SVGID_4_)" d="M481.783,378.11c-11.296,8.852-17.127-0.071-17.839-8.941
				c-0.193-0.221-0.339-0.388-0.484-0.553c-0.436,0.317-0.856,0.625-1.244,0.998c-2.809,5.655-4.979,8.663-9.628,13.344
				c-3.772-2.057,0.475-15.912,1.818-19.852c-0.243-0.276-0.437-0.497-0.626-0.715c-0.354,0.236-0.706,0.48-1.013,0.774
				c-4.753,9.561-8.752,17.889-16.705,26.06c-3.021-6.038,0.187-14.311,3.863-21.72c-0.072-0.236-0.14-0.477-0.156-0.66
				c-0.176-0.037-0.42,0.001-0.675,0.04c-0.732,0.608-0.732,0.608-4.934,7.092c-6.808,9.306-13.587,17.366-22.007,25.482
				c-0.861-4.048,1.995-11.579,3.72-16.397c2.586-4.94,4.536-9.962,6.607-15.012c-0.146-0.165-0.29-0.33-0.435-0.496
				c-0.508,0.39-1.016,0.779-1.474,1.22c-3.222,7.273-6.345,14.347-10.683,21.481c-2.728,3.341-12.301,14.803-16.048,15.361
				c-4.198-4.798-3.9-12.201-2.78-19.792c-0.482-0.553-0.482-0.553-1.108-0.457c-0.536,0.515-0.536,0.515-3.546,5.455
				c-1.052,1.213-2.187,2.51-3.259,3.857c-3.75,3.614-17.736,16.169-21.595,11.759c4.641-10.978,10.243-18.923,20.582-26.143
				c1.333-0.57,4.663-1.441,3.313-2.986c-5.334,2.288-9.042,5.153-13.479,9.428c-10.357,12.832-25.15,22.206-38.908,26.313
				c-0.096-0.109-0.192-0.22-0.287-0.329c7.541-15.409,20.199-28.827,34.102-39.379c2.333-1.533,4.636-2.937,6.927-4.339
				c-0.086-0.425-0.253-0.77-0.363-1.068c-13.615,7.014-22.883,18.189-34.327,28.814c-12.954,9.538-26.202,17.933-40.148,21.509
				c7.932-14.15,23.442-28.189,35.305-39.623c14.767-12.297,30.287-22.782,45.339-34.443c-1.28,2.253-2.559,4.5-3.832,6.743
				c-1.564,3.537-4.307,9.438,0.471,9.414c4.632-1.315,9.388-6.204,13.236-9.705c-2.396,4.034-6.738,11.167-4.132,14.146
				c5.363,1.137,15.615-11.494,19.157-15.514c0.22,0.098,0.22,0.098-2.892,8.787c-0.905,4.129-1.813,8.255,0.503,10.902
				c5.848-0.251,11.105-8.265,15.017-13.149c-0.964,3.575-2.892,10.717,1.139,11.611c6.516-3.026,9.537-9.399,13.833-15.467
				c-0.359,2.989-0.382,5.856-0.079,8.617c5.55,6.344,11.719-18.21,12.722-21.414c-0.423,0.001-0.922,0.079-1.421,0.152
				c-1.83,6.134-4.043,15.693-8.962,21.041c-2.072-3.494-0.901-9.095,0.549-14.05c-0.169-0.352-0.361-0.57-0.552-0.789
				c-4.211,3.241-9.772,19.786-15.823,20.127c-2.603-4.101,0.671-11.018,2.476-16.517c-0.193-0.22-0.464-0.369-0.684-0.463
				c-5.563,6.378-8.912,13.674-15.854,18.637c-8.513-0.538,6.755-23.389,4.089-24.996c-4.288,4.132-14.993,19.947-21.737,20.951
				c-4.193-4.792,13.205-21.67,10.802-23.928c-3.687,4.167-16.407,19.772-21.813,19.399c-2.354-4.144,5.69-14.943,8.916-19.478
				c-0.193-0.221-0.384-0.439-0.657-0.588c-1.623,1.06-1.623,1.06-15.37,12.274c-4.276,3.007-12.404,9.516-16.924,9.503
				c-1.144-3.885,19.212-20.759,22.449-23.678c-0.04-0.361-0.029-0.68-0.104-0.914c-0.168-0.042-0.422-0.002-0.668,0.033
				c-13.017,9.797-25.752,20.549-39.896,26.146c-0.289-0.331-0.531-0.607-0.771-0.882c0.57-0.956,1.114-1.785,1.654-2.613
				c9.353-11.247,22.347-20.416,33.373-29.415c-0.069-0.241-0.086-0.429-0.112-0.608c-0.342-0.074-0.637-0.095-1.016-0.037
				c-13.477,9.43-29.264,20.881-43.72,25.161c-0.163-0.355-0.278-0.649-0.471-0.869c12.469-12.018,27.256-19.463,41.403-27.805
				c0.184-0.587,0.184-0.587-0.155-0.975c-10.419,4.856-21.036,9.804-31.469,14.166c-5.723,1.852-12.868,5.282-17.995,4.427
				c13.533-11.618,31.414-17.459,46.322-23.797c0.434-0.315,0.866-0.633,1.296-0.944c-0.118-0.292-0.234-0.589-0.427-0.81
				c-16.335,5.682-32.491,11.079-48.614,14.415c-1.656-0.126-4.56,0.426-5.62-0.786c0.921-0.888,1.811-1.639,2.701-2.398
				c12.645-8.119,26.681-12.393,39.684-17.198c0.505-0.388,1.013-0.773,1.494-1.029c-0.257-0.775-0.36-0.574-1.021-0.85
				c-15.226,4.199-32.261,8.115-45.807,6.021c-0.407-0.321-0.83-0.632-1.238-0.945c6.35-8.054,36.277-10.766,43.324-12.066
				c0.309-0.296,0.664-0.537,1.019-0.776c-0.119-0.295-0.236-0.587-0.382-0.753c-14.549,1.417-30.07,3.355-42.963,0.227
				c-0.56-0.477-1.192-0.883-1.832-1.283c5.725-4.911,15.272-5.772,21.441-6.939c6.615-0.988,8.977-1.026,18.479-2.252
				c0.231-0.224,0.385-0.371,0.534-0.516c0.069-0.574,0.069-0.574-0.318-1.017c-15.438-0.066-15.438-0.066-25.392-0.641
				c-4.507-0.637-8.923-0.854-12.65-2.857c1.118-0.979,1.118-0.979,4.167-2.488c18.638-5.462,37.572-9.777,55.458-10.947
				c18.675,1.522,33.691,9.009,50.617,13.848c9.72,1.918,9.72,1.918,27.614,4.802c11.979,3.202,20.812,8.622,24.875,20.363
				c0.942,8.339-0.497,17.664,0.61,25.854c2.926,8.664,9.915,14.235,15.591,20.56c0.018,0.183,0.037,0.37-0.018,0.628
				c-7.181,10.172-19.584,2.601-24.488-0.094c-4.427-4.58-6.634-8.553-8.172-15.305c-0.679-5.143-1.319-10.22-2.034-15.226
				c-1.71-4.861-3.536-9.2-6.149-13.493c-19.55-20.715-49.384-30.803-77.949-39.27c-4.398,0.783-10.194,1.083-14.252,4.995
				c-2.235,6.32,11.547,4.328,14.148,5.375c-3.01,1.071-8.697,2.791-9.55,6.661c2.704,3.091,7.663,2.786,12.133,3.055
				c-2.843,1.114-7.9,2.426-9.65,5.738c1.29,3.74,10.665,1.723,14.286,1.179c-0.562,0.649-0.562,0.649-5.741,3.603
				c-1.065,1.027-2.139,2.062-3.287,3.168c-2.131,5.306,8.193,2.269,10.601,1.476c-1.163,1.732-4.288,3.321-5.518,5.623
				c-0.128,3.892,6.521,1.648,9.255,0.744c-1.229,1.184-2.448,2.359-3.752,3.616c-5.002,8.478,8.923,1.976,12.146,0.497
				c-2.648,3.264-4.455,4.902-5.326,8.593c3.623,3.009,9.036-1.292,14.209-4.243c-2.778,3.594-5.056,5.991-5.934,9.987
				c0.386,0.442,0.821,0.938,1.257,1.437c4.351-0.027,11.215-5.729,15.181-8.937c-2.427,4.166-5.164,7.005-2.7,9.821
				c4.958-1.113,9.229-4.933,13.703-8.531c-0.916,1.699-1.783,3.445-2.727,5.269c-1.302,8.68,7.344-0.471,10.965-4.064
				c-2.103,6.304-2.103,6.304-2.545,8.862c0.966,8.833,8.923-1.889,12.625-6.372c-0.344,1.858-0.696,3.723-0.994,5.64
				c0.896,5.536,3.262,5.495,8.455-0.017c2.279-3.522,4.882-8.77,5.38-9.153c2.061,14.597,2.061,14.597,3.273,20.335
				c3.82,9.538,16.945,20.983,30.841,13.484c1.179-1.233,2.282-2.394,3.427-3.498C487.184,364.766,486.585,370.534,481.783,378.11
				L481.783,378.11z M439.635,337.99c2.616-3.942,4.664-8.049,6.413-12.178c-0.548-1.914-0.548-1.914-1.613-3.939
				c-2.156,1.879-4.66,3.377-7.033,4.852c-1.39,4.387-4.509,11.464-0.888,13.667C437.24,340.093,437.24,340.093,439.635,337.99
				L439.635,337.99z M388.402,381.981c-0.338-0.387-0.674-0.771-0.965-1.103c-6.092,5.773-12.14,11.603-18.258,17.499
				c0.208,0.406,0.421,0.812,0.631,1.215C375.934,393.692,382.04,387.608,388.402,381.981L388.402,381.981z M428.676,336.758
				c2.253-3.395,4.479-6.653,6.706-9.921c-2.894-1.376-2.376-4.319-1.139-7.746c-1.952,1.475-3.907,2.953-5.813,4.48
				c-1.609,3.479-7.479,14.835-4.473,16.82C425.65,339.572,427.099,338.175,428.676,336.758L428.676,336.758z M444.078,320.496
				c-1.503-2.524-2.958-4.984-4.985-6.995c-3.242,4.849-7.76,15,1.311,9.72C441.643,322.226,442.865,321.357,444.078,320.496
				L444.078,320.496z M361.471,388.927c5.477-5.992,10.813-12.153,15.922-18.402c-0.366-0.255-0.684-0.455-0.998-0.66
				c-8.5,10.122-16.82,19.467-27.233,27.566c0.168,0.353,0.381,0.758,0.591,1.162C355.339,394.328,355.339,394.328,361.471,388.927
				L361.471,388.927z M421.181,330.766c1.601-2.051,3.114-4.019,4.682-5.936c-1.929-0.277-3.45-0.236-4.017-2.332
				c-3.293,3.174-6.98,9.267-7.405,13.14C416.964,335.133,419.067,332.7,421.181,330.766L421.181,330.766z M436.274,314.794
				c0.667-0.843,1.335-1.692,2.001-2.535c-2.015-1.826-4.031-3.644-6.074-5.339c-3.943,4.205-6.627,9.034-8.591,13.876
				C424.039,327.093,434.079,316.808,436.274,314.794L436.274,314.794z M419.027,322.977c2.835-3.044,4.647-6.612,6.558-10.077
				c-3.956,2.895-8.171,6.135-12.417,6.774c-4.742,4.57-8.095,9.123-10.65,14.741c0.192,0.219,0.388,0.443,0.497,0.741
				C407.759,334.446,415.222,326.539,419.027,322.977L419.027,322.977z M430.586,306.043c-2.684-1.79-5.321-3.516-7.965-5.241
				c-5.063,5.19-8.95,9.441-10.687,15.688C415.94,321.067,426.161,310.005,430.586,306.043L430.586,306.043z M369.104,361.532
				c-0.336-0.384-0.673-0.77-0.965-1.103c-41.845,35.046-41.845,35.046-51.414,43.453c0.289,0.332,0.629,0.719,0.968,1.105
				C334.561,390.253,352.185,376.217,369.104,361.532L369.104,361.532z M410.884,319.64c-1.598-4.257,0.663-7.148,3.697-11.902
				c-0.576,0.147-0.576,0.147-5.797,3.856c-10.396,5.854-10.472,0.128-3.54-8.075c-4.909,2.293-15.319,6.83-10.723-2.582
				c1.336-1.693,2.675-3.388,3.988-4.961c-5.204,1.966-15.68,5.147-9.906-3.573c3.439-3.003,3.439-3.003,6.63-5.168
				c-5.726-2.512-5.726-2.512-13.759-5.244c-8.107,2.018-17.116,3.176-24.967,8.707c4.345,4.966,22.964,1.257,29.953,0.216
				c0.194,0.222,0.384,0.439,0.502,0.737c-0.355,0.237-0.664,0.533-1.049,0.905c-7.979,1.185-18.84,1.992-26.869,7.495
				c2.924,2.058,11.284-0.001,15.375-0.488c3.88-0.889,7.675-1.701,11.53-2.465c0.017,0.186,0.084,0.427,0.151,0.668
				c-0.301,0.29-0.609,0.588-0.943,1.009c-6.689,1.873-15.696,4.146-21.486,10.437c4.912,2.387,16.607-3.599,22.758-6.068
				c0.148,0.168,0.265,0.457,0.383,0.745c-5.454,4.245-12.808,5.838-17.685,11.56c3.496,2.218,13.635-3.283,17.958-5.108
				c0.29,0.332,0.29,0.332,0.147,0.975c-3.594,3.463-11.839,5.817-13.831,10.79c2.704,3.091,19.348-7.868,22.835-10.015
				c0.568,0.167,0.568,0.167,0.75,0.703c-0.175,0.271-0.36,0.55-0.536,0.826c-5.756,4.221-11.024,7.879-14.87,14.127
				c3.125,3.087,16.506-7.571,20.359-10.271c0.239,0.275,0.483,0.554,0.725,0.829c-4.625,4.558-10.343,9.463-12.683,15.175
				c0.238,0.273,0.479,0.549,0.77,0.88C397.287,332.643,405.357,324.453,410.884,319.64L410.884,319.64z M421.193,300.144
				c-1.955-1.268-3.86-2.478-5.84-3.619c-3.991,3.029-13.084,10.367-13.541,15.491C404.368,314.938,418.013,302.806,421.193,300.144
				L421.193,300.144z M352.004,362.463c-3.216-1.577-1.729-3.422,1.137-7.406c1.618-1.858,3.282-3.669,4.947-5.478
				c-2.128,1.442-4.209,2.939-6.368,4.506c-19.338,21.896-38.974,45.092-65.306,52.883c0.112-0.513,0.224-1.031,0.256-1.471
				c22.035-7.711,37.456-22.981,54.646-41.384c2.06-2.487,4.11-4.975,6.14-7.333c-3.989,2.217-12.779,8.451-16.103,6.26
				c-8.954,9.446-17.33,17.929-27.489,25.987c-13.22,9.082-27.271,17.847-41.338,23.372c0.144,0.165,0.291,0.332,0.356,0.571
				c15.573,2.48,29.423,0.423,46.303-10.767c4.044-4.405,8.089-8.81,12.106-13.09C331.239,379.525,341.194,370.744,352.004,362.463
				L352.004,362.463z M413.674,295.9c-2.477-1.375-4.951-2.753-7.375-4.074c-4.21,3.247-8.875,6.621-11.262,11.465
				C395.014,309.72,411.117,297.651,413.674,295.9L413.674,295.9z M321.831,371.509c4.509-5.163,8.803-10.417,12.995-15.781
				c10.945-10.548,10.945-10.548,14.968-14.017c-4.245,2.572-8.566,5.21-12.842,7.902c-20.086,20.894-40.905,39.017-66.025,45.133
				c-2.125,0.315-9.582,2.111-10.308,0.476c0.38-0.365,0.688-0.663,0.993-0.957c15.507-1.628,27.747-6.508,42.99-17.135
				c9.822-7.636,18.645-15.935,27.752-24.714c0.282-0.476,0.547-0.828,0.808-1.182c-3.701,1.738-7.484,3.552-11.104,4.091
				c-3.999,2.839-7.951,5.738-11.984,8.705c-24.175,14.455-48.504,24.374-73.389,33.822c-0.153,0.148-0.306,0.295-0.41,0.496
				c8.951,4.594,17.483,6.438,29.176,5.946c6.153-0.542,12.392-2.286,18.783-4.172C297.895,392.039,309.823,382.778,321.831,371.509
				L321.831,371.509z M404.422,291.294c-6.033-3.032-6.033-3.032-7.326-3.208c-2.896,1.674-6.555,3.775-8.68,6.84
				C387.862,299.94,403.114,292.051,404.422,291.294L404.422,291.294z M276.191,404.313c-0.206,0.093-0.355,0.236-0.588,0.461
				C275.836,404.55,275.985,404.407,276.191,404.313L276.191,404.313z M342.994,335.552c-0.725-0.011-15.78,6.157-20.641,7.691
				c-2.596,0.576-7.06,1.928-8.996,0.847c-28.45,21.007-59.912,27.13-89.267,33.563c0.406,0.623,0.406,0.623,7.106,3.928
				c12.924,3.818,26.378,5.488,42.541-0.224c15.271-6.89,33.163-14.981,46.808-27.117c-0.13-0.789,0.414-1.622,0.916-2.508
				c-21.304,12.092-42.04,22.419-63.346,24.346c-1.786-0.107-7.913,0.305-8.827-0.742c0.368-0.871,0.368-0.871,0.903-1.386
				C277.972,378.292,315.283,354.024,342.994,335.552L342.994,335.552z M337.876,326.963c-0.395-0.133-0.395-0.133-10.521,2.814
				c-9.793,6.692-9.793,6.692-17.682,11.554c-18.295,10.208-35.934,17.446-54.219,19.612c-3.274-0.196-8.604,0.161-11.26-0.942
				c0.316-0.604,0.316-0.604,1.129-1.289c7.465,0.638,14.2-0.058,22.413-1.468c18.853-5.055,36.387-13.716,54.502-25.581
				c0.102-0.203,0.204-0.403,0.282-0.478c-5.424,1.058-11.431,2.574-16.149,1.534c-30.91,18.194-61.291,21.04-91.384,25.336
				c6.854,7.836,19.922,11,31.332,11.798c20.317-2.092,43.163-11.299,63.231-24.64c2.573-2.378,5.069-4.683,7.565-6.988
				C323.936,334.092,330.826,330.201,337.876,326.963L337.876,326.963z M378.489,281.003c-6.92-2.274-17.653-8.097-27.23-0.492
				C357.73,284.845,369.416,283.039,378.489,281.003L378.489,281.003z M335.518,314.592c-2.02,0.116-2.02,0.116-11.186,1.733
				c-30.445,18.565-67.49,31.691-94.262,24.146c0.313-0.606,0.6-1.089,0.887-1.567c26.154,6.517,58.237-4.373,88.04-21.098
				c0.18-0.275,0.411-0.497,0.643-0.721c-5.957,0.448-11.521,0.528-16.977-0.211c-31.315,15.639-63.489,16.752-93.223,19.687
				c1.061,1.212,2.045,2.501,3.029,3.791c6.296,4.61,13.371,7.05,21.289,9.173c9.791,1.036,9.791,1.036,17.143,1.374
				c1.15-0.293,2.342-0.227,11.77-2.191c13.872-3.812,27.041-8.265,40.791-15.926c1.12-0.979,2.155-1.57,2.69-2.899
				C314.262,322.063,326.295,318.404,335.518,314.592L335.518,314.592z M325.518,304.3c-7.527-0.067-15.66,0.147-22.378-1.721
				c-33.673,7.138-64.284,7.458-93.415,1.572c0.296,1.141,0.296,1.141,3.069,5.28c7.625,8.715,15.436,14.102,26.946,18.062
				c9.003,1.591,9.003,1.591,15.796,2.263c10.915-1.879,22.046-4.471,33.184-8.189c4.228-1.939,8.454-3.879,12.732-5.765
				c-0.035-0.679-0.016-1.309-0.077-1.86c-9.556,3.111-9.556,3.111-14.693,4.5c-23.48,4.434-41.303,3.409-59.824-4.058
				c-0.387-0.442,0.379-1.182,0.589-1.583c10.764,3.757,10.764,3.757,15.822,5.187c15.102,2.426,29.481,2.093,46.565-2.072
				C301.753,311.954,313.715,306.935,325.518,304.3L325.518,304.3z M320.324,290.293c-5.512-0.488-13.472-0.235-17.385-3.582
				c-0.11-1.418-0.11-1.418-0.448-1.805c-23.027-7.298-35.255-31.102-45.116-51.9c-3.042-7.34-6.072-14.991-8.248-22.961
				c-1.216,0.866-4.114,14.641-4.792,17.737c-0.662,7.957-0.787,15.709-0.067,23.149c2.676,12.567,7.7,23.795,15.471,32.677
				c13.639,6.072,27.267,10.526,43.042,12.912c1.752-0.255,13.711-4.162,13.889-4.439c-28.686-0.21-57.444-14.383-63.703-42.013
				c0.704-0.982,1.072-1.032,1.738-0.76C263.42,277.006,288.952,291.04,320.324,290.293L320.324,290.293z M300.76,301.317
				c-0.11-0.299-0.231-0.59-0.376-0.755c-24.333,3.623-42.701-1.246-58.554-13.728c-6.998-8-6.998-8-7.729-9.327
				c0.456-0.439,0.915-0.881,1.375-1.325c3.649,4.82,3.649,4.82,8.416,9.784c11.904,9.577,25.573,13.588,42.91,14.062
				c4.613-0.379,9.219-0.75,13.83-1.126c0.178-0.277,0.411-0.501,0.642-0.723c-17.236-2.601-33.109-7.845-47.449-15.375
				c-4.23-2.737-8.459-5.477-12.714-8.083c-5.787-5.001-11.648-9.93-17.128-15.223c0.83,25.13,14.373,39.328,34.659,47.033
				C272.119,306.145,286.522,304.869,300.76,301.317L300.76,301.317z M322.435,277.07c-17.886-2.079-27.49-12.55-34.245-27.696
				c-4.316-16.382-4.477-31.887-2.33-51.039c1.523-9.708,1.523-9.708,3.529-19.671c-6.198,5.974-11.036,15.927-14.929,22.931
				c-4.219,10.167-4.219,10.167-6.051,15.488c-2.465,9.6-2.979,18.533-3.215,27.608c9.02,15.306,19.149,31.88,36.648,38.194
				c3.08,0.289,5.349-0.985,8.774-2.554c-4.966-1.321-4.966-1.321-10.792-3.633c-14.533-8.058-20.981-19.948-23.919-37.656
				c-0.106-4.472-0.207-8.949-0.266-13.367c0.354-0.24,0.755-0.424,1.085-0.537c0.192,0.22,0.31,0.518,0.427,0.806
				c0.137,3.225,0.273,6.449,0.337,9.744c2.043,16.845,7.287,28.159,19.427,37.205c5.494,2.734,11.362,4.602,17.431,6.382
				C321.805,277.475,321.805,277.475,322.435,277.07L322.435,277.07z M247.251,330.923c-0.047-0.053-0.17-0.036-0.301-0.014
				C247.081,330.887,247.205,330.87,247.251,330.923L247.251,330.923z M253.333,306.762L253.333,306.762L253.333,306.762z"/>
		</g>
	</g>
</g>
</svg>
